<svg id="_x33_0" enable-background="new 0 0 64 64" height="512" viewBox="0 0 64 64" width="512" xmlns="http://www.w3.org/2000/svg"><g><g><g><path d="m54 33v26c0 .83-.34 1.58-.88 2.12s-1.29.88-2.12.88c-1.66 0-3-1.34-3-3v-15-14h3c1.66 0 3 1.34 3 3z" fill="#ffeaa7"/></g><g><path d="m51 62h-39c-1.1 0-2-.9-2-2v-22c0-1.1.9-2 2-2h2 24c1.1 0 2 .9 2 2v2c0 1.1.9 2 2 2h2 2c1.1 0 2 .9 2 2v15c0 1.66 1.34 3 3 3z" fill="#fcd770"/></g><g><path d="m34 48h10v4h-10z" fill="#ff826e"/></g><g><path d="m18 16v-13c0-.55.45-1 1-1h28c.55 0 1 .45 1 1v27 14c0-1.1-.9-2-2-2h-2v-25c0-.55-.45-1-1-1z" fill="#e6e9ed"/></g><g><path d="m38 11h4v5h-4z" fill="#fcd770"/></g><g><path d="m30 8h4v8h-4z" fill="#fcd770"/></g><g><path d="m44 17v25h-2c-1.1 0-2-.9-2-2v-2c0-1.1-.9-2-2-2h-24v-19c0-.55.45-1 1-1h3 12 4 4 4 1c.55 0 1 .45 1 1z" fill="#f0d0b4"/></g><g><path d="m28.68 22.25-4.68 3.75-4.68-3.75c1.1-1.37 2.79-2.25 4.68-2.25s3.58.88 4.68 2.25z" fill="#e6e9ed"/></g><g><path d="m28.68 22.25c.83 1.03 1.32 2.33 1.32 3.75 0 3.31-2.69 6-6 6v-6z" fill="#fcd770"/></g><g><path d="m24 26v6c-3.31 0-6-2.69-6-6 0-1.42.49-2.72 1.32-3.75z" fill="#b4dd7f"/></g></g><g><path d="m24 19c-3.86 0-7 3.14-7 7s3.14 7 7 7 7-3.14 7-7-3.14-7-7-7zm3.181 3.175-3.181 2.544-3.181-2.544c.867-.723 1.967-1.175 3.181-1.175s2.314.452 3.181 1.175zm-8.181 3.825c0-.819.217-1.582.568-2.265l3.432 2.746v4.418c-2.279-.465-4-2.485-4-4.899zm6 4.899v-4.418l3.432-2.746c.351.683.568 1.446.568 2.265 0 2.414-1.721 4.434-4 4.899z"/><path d="m33 21h2v2h-2z"/><path d="m37 21h4v2h-4z"/><path d="m33 25h8v2h-8z"/><path d="m33 29h8v2h-8z"/><path d="m51 29h-2v-26c0-1.103-.897-2-2-2h-28c-1.103 0-2 .897-2 2v12h-2c-1.103 0-2 .897-2 2v18h-1c-1.654 0-3 1.346-3 3v22c0 1.654 1.346 3 3 3h39c2.206 0 4-1.794 4-4v-26c0-2.206-1.794-4-4-4zm-32-26h28v38.184c-.314-.112-.648-.184-1-.184h-1v-24c0-1.103-.897-2-2-2v-5h-6v5h-2v-8h-6v8h-10zm22 12h-2v-3h2zm-8 0h-2v-6h2zm-18 2h28v24h-1c-.551 0-1-.449-1-1v-2c0-1.654-1.346-3-3-3h-23zm-3 44c-.551 0-1-.449-1-1v-22c0-.551.449-1 1-1h26c.551 0 1 .449 1 1v2c0 1.654 1.346 3 3 3h4c.551 0 1 .449 1 1v15c0 .728.195 1.411.537 2zm41-2c0 1.103-.897 2-2 2s-2-.897-2-2v-15-13h2c1.103 0 2 .897 2 2z"/><path d="m33 53h12v-6h-12zm2-4h8v2h-8z"/><path d="m33 55h12v2h-12z"/><path d="m23 11h4v2h-4z"/><path d="m23 7h4v2h-4z"/></g></g></svg>