<svg height="512" viewBox="0 0 60 60" width="512" xmlns="http://www.w3.org/2000/svg"><g id="Page-1" fill="none" fill-rule="evenodd"><g id="015---Online-Auction" fill-rule="nonzero"><path id="Shape" d="m59 38v6c-.0032948 1.1032019-.8967981 1.9967052-2 2h-54c-1.10320187-.0032948-1.9967052-.8967981-2-2v-6z" fill="#9e9e9e"/><path id="Shape" d="m56 38v6c-.0032948 1.1032019-.8967981 1.9967052-2 2h3c1.1032019-.0032948 1.9967052-.8967981 2-2v-6z" fill="#707070"/><path id="Shape" d="m59 3v35h-58v-35c.0032948-1.10320187.89679813-1.9967052 2-2h54c1.1032019.0032948 1.9967052.89679813 2 2z" fill="#02a9f4"/><path id="Shape" d="m57 1h-3c1.1032019.0032948 1.9967052.89679813 2 2v35h3v-35c-.0032948-1.10320187-.8967981-1.9967052-2-2z" fill="#0377bc"/><path id="Rectangle-path" d="m21 46h18v6h-18z" fill="#707070"/><path id="Shape" d="m46 58c0 .5522847-.4477153 1-1 1h-30c-.5522847 0-1-.4477153-1-1 .0049563-3.3116533 2.6883467-5.9950437 6-6h20c1.5912989 0 3.1174224.632141 4.2426407 1.7573593s1.7573593 2.6513418 1.7573593 4.2426407z" fill="#9e9e9e"/><path id="Shape" d="m40 52h-3c3.3137085 0 6 2.6862915 6 6 0 .5522847-.4477153 1-1 1h3c.5522847 0 1-.4477153 1-1 0-3.3137085-2.6862915-6-6-6z" fill="#707070"/><path id="Shape" d="m51.674 37.927-4.259-4.858 1.759-1.408c.275065-.2180808.4156434-.5644178.3703906-.9125158-.0452527-.3480979-.2697096-.6469804-.5913906-.7874842l-10.548-4.65c-.3548017-.1568767-.7683213-.0943956-1.0609357.1603031-.2926143.2546987-.4115188.6556527-.3050643 1.0286969l3.014 10.68c.0911265.322536.3377733.5779731.6569219.6803339.3191485.1023608.6683542.0380321.9300781-.1713339l2.633-2.106 4.485 5.079c.1827093.2069435.4428388.3291514.7187657.3376735.275927.0085221.5431024-.0973998.7382343-.2926735l1.414-1.414c.3723689-.3724417.3920495-.9698586.045-1.366z" fill="#37474f"/><path id="Shape" d="m20.82 23.42-9.7 9.7c-.8579473.8568812-2.14736832 1.1130328-3.26769405.6491479-1.12032574-.4638849-1.85123941-1.5565813-1.85230595-2.7691479-.0039864-.7963104.31326319-1.5605935.88-2.12l9.7-9.7z" fill="#a0522d"/><path id="Rectangle-path" d="m17.237 10.765h9.998v14.001h-9.998z" fill="#f57c00" transform="matrix(.707 -.707 .707 .707 -6.05 20.926)"/><path id="Shape" d="m20.82 9.28-7.07 7.07-3.12-1.76c-.3146783-.1682685-.5387706-.4671553-.6120894-.8163845-.07331886-.3492292.0116515-.7130022.2320894-.9936155l7-7c.2807374-.22213177.6451478-.30915209.9959606-.23783301.3508127.07131909.6523192.29371809.8240394.60783301z" fill="#ff9801"/><path id="Shape" d="m34.22 22.75-7 7c-.2832383.217901-.6475059.3012571-.9973204.2282189-.3498146-.0730382-.6502952-.2951879-.8226796-.6082189l-1.75-3.12 7.07-7.07 3.12 1.75c.3151737.170417.5392369.4710594.6124669.8217926.0732301.3507333-.011815.7159147-.2324669.9982074z" fill="#ff9801"/><path id="Shape" d="m39 21c-.5522847 0-1-.4477153-1-1v-3c0-.5522847.4477153-1 1-1s1 .4477153 1 1v3c0 .5522847-.4477153 1-1 1z" fill="#ffeb3a"/><path id="Shape" d="m43 23c-.4043959-.0000863-.7689341-.2437275-.923678-.6173454-.1547439-.373618-.0692299-.8036603.216678-1.0896546l2.5-2.5c.3923789-.3789722 1.0160848-.3735524 1.4018186.0121814s.3911536 1.0094397.0121814 1.4018186l-2.5 2.5c-.1874927.1875494-.4418052.2929434-.707.293z" fill="#ffeb3a"/><g fill="#f5f5f5"><path id="Shape" d="m32 7h-2c-.5522847 0-1-.44771525-1-1s.4477153-1 1-1h2c.5522847 0 1 .44771525 1 1s-.4477153 1-1 1z"/><path id="Shape" d="m54 7h-18c-.5522847 0-1-.44771525-1-1s.4477153-1 1-1h18c.5522847 0 1 .44771525 1 1s-.4477153 1-1 1z"/><path id="Shape" d="m32 43h-4c-.5522847 0-1-.4477153-1-1s.4477153-1 1-1h4c.5522847 0 1 .4477153 1 1s-.4477153 1-1 1z"/></g><path id="Shape" d="m57 0h-54c-1.65685425 0-3 1.34314575-3 3v41c0 1.6568542 1.34314575 3 3 3h17v4c-3.8641657.0044086-6.9955914 3.1358343-7 7 0 1.1045695.8954305 2 2 2h30c1.1045695 0 2-.8954305 2-2-.0044086-3.8641657-3.1358343-6.9955914-7-7v-4h17c1.6568542 0 3-1.3431458 3-3v-41c0-1.65685425-1.3431458-3-3-3zm-12 58h-30c.0033061-2.7600532 2.2399468-4.9966939 5-5h20c2.7598251.0038557 4.9961443 2.2401749 5 5zm-7-7h-16v-4h16zm19-6h-54c-.55228475 0-1-.4477153-1-1v-5h34c.5522847 0 1-.4477153 1-1s-.4477153-1-1-1h-34v-34c0-.55228475.44771525-1 1-1h54c.5522847 0 1 .44771525 1 1v34h-2c-.5522847 0-1 .4477153-1 1s.4477153 1 1 1h2v5c0 .5522847-.4477153 1-1 1z" fill="#000"/><path id="Shape" d="m34.332 20.056-3-1.686-9.7-9.7-1.72-3.06c-.3920665-.60611833-1.0340624-1.00576172-1.751-1.09-.5928072-.06767506-1.1846474.13462267-1.612.551l-7 7c-.41825989.4261938-.62087306 1.0189568-.551 1.612.09136036.7383331.51338735 1.3951057 1.147 1.785l3 1.686 2.023 2.023-8.994 9c-1.56213741 1.5621374-1.56213741 4.0948626 0 5.657s4.0948626 1.5621374 5.657 0l8.994-8.995 2.024 2.024 1.72 3.06c.3916487.6060722 1.0333314 1.0057488 1.75 1.09.075.007.148.011.221.011.5200982.0048404 1.0206859-.1977698 1.391-.563l7-7c.4183498-.4257287.6210036-1.0182429.551-1.611-.0897228-.7420718-.5131648-1.4026412-1.15-1.794zm-7.854 1.944-2.829 2.829-8.485-8.486 5.657-5.657 8.485 8.485zm-15.521-8.517 6.962-6.977h.016c.1026077.00780363.1972609.05821279.261.139l1.382 2.455-6 6-2.405-1.347c-.0953018-.06859-.1700029-.1619663-.216-.27zm-.544 18.93c-.78120678.7812068-2.04779322.7812068-2.829 0s-.78120678-2.0477932 0-2.829l8.994-9 2.829 2.829zm16.138-3.4c-.1087959-.0003098-.2112238-.0513389-.277-.138l-1.382-2.461 3-3 3-3 2.4 1.347c.0961043.0701944.171711.164789.219.274z" fill="#000"/><path id="Shape" d="m48.856 33.2.944-.754c.5455625-.4370997.8233078-1.1273333.7325503-1.8204839-.0907576-.6931505-.5368448-1.2886093-1.1765503-1.5705161l-10.548-4.655c-.7085074-.3119903-1.5334352-.1870729-2.117808.3206959s-.8232231 1.3071815-.613192 2.0523041l3.014 10.677c.1820062.6452435.6751983 1.1563752 1.3135301 1.3613091s1.3368838.0764068 1.8604699-.3423091l1.888-1.511 3.856 4.365c.3650003.4143684.8850796.6593883 1.437.677h.061c.53054-.0008328 1.039212-.2114913 1.415-.586l1.415-1.414c.7421565-.7465364.7810138-1.9397599.089-2.733zm.652 6.8-4.486-5.079c-.3530164-.3996609-.9575275-.4520167-1.374-.119l-2.632 2.106-3.016-10.677 10.549 4.65-1.759 1.407c-.213281.1704492-.3475964.4206916-.3717699.6926427-.0241734.271951.0638974.5419611.2437699.7473573l4.259 4.858z" fill="#000"/></g></g></svg>