<svg height="512" viewBox="0 0 48 58" width="512" xmlns="http://www.w3.org/2000/svg"><g id="Page-1" fill="none" fill-rule="evenodd"><g id="001---Bid-Sign" fill-rule="nonzero"><path id="Shape" d="m36 33c.0515308 1.1935621-.4962082 2.3340599-1.46 3.04-1.0535738.6755834-2.2894576 1.0107383-3.54.96l-2-5h6c.5522847 0 1 .4477153 1 1z" fill="#f9c795"/><path id="Shape" d="m25.59 38.59c-.3798589.3704612-.5928231.8794095-.59 1.41.0032948 1.1032019.8967981 1.9967052 2 2-1.1011688.0081672-1.9918328.8988312-2 2 .0032948 1.1032019.8967981 1.9967052 2 2-1.1011688.0081672-1.9918328.8988312-2 2 .0032948 1.1032019.8967981 1.9967052 2 2h1c-1.1011688.0081672-1.9918328.8988312-2 2 .0011473.3315234.0835524.6577104.24.95l-.24.05h-4.85c-2.727545-.0028219-5.4175375-.6359626-7.86-1.85l-1.45-.73c-.5483269-.2784324-1.1550356-.4223972-1.77-.42h-8.07c-1.10320187-.0032948-1.9967052-.8967981-2-2v-9c.0032948-1.1032019.89679813-1.9967052 2-2h7.55c.9307501-.0029182 1.8317826-.3279966 2.55-.92 3.1595607-2.6369399 7.1446294-4.080908 11.26-4.08l5.64-.0000004v6.0000004h-2c-.5305905-.0028231-1.0395388.2101411-1.41.59z" fill="#f9c795"/><path id="Rectangle-path" d="m27 26h4v14h-4z" fill="#cb8252"/><path id="Shape" d="m31 53v3c0 1.1045695-.8954305 2-2 2s-2-.8954305-2-2v-3z" fill="#cb8252"/><rect id="Rectangle-path" fill="#f9eab0" height="28" rx="2" width="38" x="10"/><path id="Shape" d="m24 10c-.0033061-2.76005315-2.2399468-4.99669388-5-5h-3c-1.1045695 0-2 .8954305-2 2v14c0 1.1045695.8954305 2 2 2h3c2.1566753.0062173 4.0727751-1.3751502 4.7484261-3.423267.675651-2.0481169-.0423886-4.2984577-1.7794261-5.576733 1.272967-.9358543 2.0265663-2.4200479 2.031-4zm-2 8c0 1.6568542-1.3431458 3-3 3h-3v-6h3c1.6568542 0 3 1.3431458 3 3zm-3-5h-3v-6h3c1.6568542.00000003 2.9999999 1.34314578 2.9999999 3 0 1.6568542-1.3431457 3-2.9999999 3z" fill="#a56a43"/><path id="Shape" d="m39 5h-2c-1.1045695 0-2 .8954305-2 2v14c0 1.1045695.8954305 2 2 2h2c3.3123376-.0033074 5.9966926-2.6876624 6-6v-6c-.0033074-3.31233757-2.6876624-5.99669262-6-6zm4 12c0 2.209139-1.790861 4-4 4h-2v-14h2c2.209139 0 4 1.790861 4 4z" fill="#a56a43"/><path id="Shape" d="m32 7c.5522847 0 1-.44771525 1-1s-.4477153-1-1-1h-6c-.5522847 0-1 .44771525-1 1s.4477153 1 1 1h2v14h-2c-.5522847 0-1 .4477153-1 1s.4477153 1 1 1h6c.5522847 0 1-.4477153 1-1s-.4477153-1-1-1h-2v-14z" fill="#a56a43"/><g fill="#f9c795"><path id="Shape" d="m34 52c-.0081672 1.1011688-.8988312 1.9918328-2 2h-6c-1.1045695 0-2-.8954305-2-2-.0010024-.1652251.0191617-.3298982.06-.49.0856516-.3508005.2694973-.6699289.53-.92.3704612-.3798589.8794095-.5928231 1.41-.59h6c.9095785.0029536 1.702609.6192985 1.93 1.5.0484016.1621858.0720017.3307578.07.5z"/><path id="Shape" d="m34 48c-.0081672 1.1011688-.8988312 1.9918328-2 2h-7c-1.1032019-.0032948-1.9967052-.8967981-2-2-.0020017-.1692422.0215984-.3378142.07-.5.0842829-.3462084.264518-.6616197.52-.91.3704612-.3798589.8794095-.5928231 1.41-.59h7c.9095785.0029536 1.702609.6192985 1.93 1.5.0484016.1621858.0720017.3307578.07.5z"/><path id="Shape" d="m34 44c-.0081672 1.1011688-.8988312 1.9918328-2 2h-7c-1.1032019-.0032948-1.9967052-.8967981-2-2-.0020017-.1692422.0215984-.3378142.07-.5.0842829-.3462084.264518-.6616197.52-.91.3704612-.3798589.8794095-.5928231 1.41-.59h7c.9095785.0029536 1.702609.6192985 1.93 1.5.0484016.1621858.0720017.3307578.07.5z"/><path id="Shape" d="m34 40c-.0081672 1.1011688-.8988312 1.9918328-2 2h-7c-1.1032019-.0032948-1.9967052-.8967981-2-2-.0020017-.1692422.0215984-.3378142.07-.5.0842829-.3462084.264518-.6616197.52-.91.3704612-.3798589.8794095-.5928231 1.41-.59h7c.9095785.0029536 1.702609.6192985 1.93 1.5.0484016.1621858.0720017.3307578.07.5z"/></g><path id="Shape" d="m33.93 51.5c-.0842829.3462084-.264518.6616197-.52.91-.3704612.3798589-.8794095.5928231-1.41.59h-6c-.7343195-.0025998-1.4089013-.4050491-1.76-1.05-.0702436-.1422643-.1303921-.2892938-.18-.44.0856516-.3508005.2694973-.6699289.53-.92.3704612-.3798589.8794095-.5928231 1.41-.59h6c.9095785.0029536 1.702609.6192985 1.93 1.5z" fill="#fdd7ad"/><path id="Shape" d="m33.93 47.5c-.0842829.3462084-.264518.6616197-.52.91-.3704612.3798589-.8794095.5928231-1.41.59h-7c-.9095785-.0029536-1.702609-.6192985-1.93-1.5.0842829-.3462084.264518-.6616197.52-.91.3704612-.3798589.8794095-.5928231 1.41-.59h7c.9095785.0029536 1.702609.6192985 1.93 1.5z" fill="#fdd7ad"/><path id="Shape" d="m33.93 43.5c-.0842829.3462084-.264518.6616197-.52.91-.3704612.3798589-.8794095.5928231-1.41.59h-7c-.9095785-.0029536-1.702609-.6192985-1.93-1.5.0842829-.3462084.264518-.6616197.52-.91.3704612-.3798589.8794095-.5928231 1.41-.59h7c.9095785.0029536 1.702609.6192985 1.93 1.5z" fill="#fdd7ad"/><path id="Shape" d="m33.93 39.5c-.0842829.3462084-.264518.6616197-.52.91-.3704612.3798589-.8794095.5928231-1.41.59h-7c-.9095785-.0029536-1.702609-.6192985-1.93-1.5.0842829-.3462084.264518-.6616197.52-.91.3704612-.3798589.8794095-.5928231 1.41-.59h7c.9095785.0029536 1.702609.6192985 1.93 1.5z" fill="#fdd7ad"/></g></g></svg>