<svg height="512" viewBox="0 0 56 60" width="512" xmlns="http://www.w3.org/2000/svg"><g id="Page-1" fill="none" fill-rule="evenodd"><g id="021---Bidder" transform="translate(0 -1)"><path id="Shape" d="m23 2c.0006426.15052034-.0093825.300897-.03.45-.0078486.13558446-.0313377.26980794-.07.4-.3790593 1.28317644-1.5620451 2.16021767-2.9 2.15h-2c-4.418278 0-8 3.581722-8 8v7c-.00297867 2.387156.9473874 4.6766743 2.64 6.36.9109767.9195845 2.0139519 1.6264448 3.23 2.07.5283961.1993924 1.0749852.3467571 1.632.44.024 0 .049.006.073.009 1.5319277.2574478 3.1047753.1024755 4.557-.449 3.5297049-1.3021479 5.8724643-4.6677685 5.868-8.43v-13c.0000064-5-5-5-5-5z" fill="#ffe0b2" fill-rule="nonzero"/><rect id="Rectangle-path" fill="#60a917" fill-rule="nonzero" height="14" rx="1" width="18" x="37" y="3"/><path id="Shape" d="m54 3h-3c.5522847 0 1 .44771525 1 1v12c0 .5522847-.4477153 1-1 1h3c.5522847 0 1-.4477153 1-1v-12c0-.55228475-.4477153-1-1-1z" fill="#549414" fill-rule="nonzero"/><path id="Shape" d="m48 17v8.54c-.3592042-.2129452-.7511627-.3649981-1.16-.45-.9696223-.2107378-1.9830207-.0501641-2.84.45v-8.54z" fill="#a0522d" fill-rule="nonzero"/><path id="Shape" d="m31 42.51-3.05-1.22" stroke="#000" stroke-linecap="round" stroke-linejoin="round" stroke-width="2"/><g fill-rule="nonzero"><path id="Shape" d="m49.91 29.84-2.5 11.68c-.371105 1.7295092-1.4864602 3.2071369-3.0480327 4.0380477-1.5615724.8309107-3.4102199.9304252-5.0519673.2719523l-8.31-3.32v16.49c0 .5522847-.4477153 1-1 1h-21c-4.41576577-.0060592-7.99394081-3.5842342-8-8v-8.7c-.00204304-3.6013635 2.14136303-6.8577676 5.45-8.28l3.22-1.37c.9945928-.4295104 2.0666287-.6507242 3.15-.65h1.18s.83 2 5 2 5-2 5-2h2.46c1.5278727-.0000217 3.0416796.2918783 4.46.86l9.16 3.66 2.01-9.36c.4672469-2.1571335 2.5912968-3.5299405 4.75-3.07.4088373.0850019.8007958.2370548 1.16.45 1.5014819.8677477 2.2727782 2.604174 1.91 4.3z" fill="#02a9f4"/><path id="Shape" d="m48 25.54c-.3592042-.2129452-.7511627-.3649981-1.16-.45-.7798515-.1674369-1.5921974-.0934922-2.329.212.1690003.0663615.3325067.1459413.489.238 1.5014819.8677477 2.2727782 2.604174 1.91 4.3l-2.5 11.68c-.4705468 2.2218838-2.1614418 3.984105-4.362 4.546 1.5812913.4108581 3.2617979.1577503 4.6519219-.7006447s2.3691396-2.2475294 2.7100781-3.8453553l2.5-11.68c.3627782-1.695826-.4085181-3.4322523-1.91-4.3z" fill="#0377bc"/><path id="Shape" d="m28 42.51v16.49c0 .5522847-.4477153 1-1 1h3c.5522847 0 1-.4477153 1-1v-15.291z" fill="#0377bc"/><path id="Shape" d="m21 52c2.209139 0 4 1.790861 4 4s-1.790861 4-4 4h-3c2.209139 0 4-1.790861 4-4s-1.790861-4-4-4" fill="#0377bc"/><path id="Shape" d="m24 33s-.83 2-5 2-5-2-5-2 1.42-.83 1.87-4.57c2.0174692.7599791 4.2425308.7599791 6.26 0 .45 3.74 1.87 4.57 1.87 4.57z" fill="#dfc49c"/><path id="Shape" d="m28 7v8s0-3.56-3-4.67c-.6413551-.2295399-1.3189006-.34133487-2-.33h-8c-5 0-5 5-5 5v-2c0-4.418278 3.581722-8 8-8h2c1.3379549.01021767 2.5209407-.86682356 2.9-2.15.0386623-.13019206.0621514-.26441554.07-.4.0206175-.149103.0306426-.29947966.03-.45 0 0 5 0 5 5z" fill="#a0522d"/><path id="Shape" d="m28 15v5c.0041557 3.7627423-2.3395071 7.1285136-5.87 8.43-.999929.3789771-2.0606651.5721463-3.13.57-.5026917-.0027219-1.0043352-.0461976-1.5-.13 4.3229214-.7419343 7.4869216-4.4838918 7.5-8.87v-9.67c3 1.11 3 4.67 3 4.67z" fill="#dfc49c"/><path id="Shape" d="m28 7v8s0-3.56-3-4.67v-3.33c.1153288-1.66403435-.6909271-3.25734967-2.1-4.15.0338512-.13127744.0572576-.26502851.07-.4.0206175-.149103.0306426-.29947966.03-.45 0 0 5 0 5 5z" fill="#783e22"/><path id="Shape" d="m54 2h-16c-1.1045695 0-2 .8954305-2 2v12c0 1.1045695.8954305 2 2 2h5v7.028c-.9632927.7124071-1.6343899 1.7510438-1.888 2.922l-1.761 8.2-8.061-3.219c-1.5359929-.6151826-3.1753931-.9311829-4.83-.931h-2.079c-.6327604-.8684337-1.0265424-1.8877152-1.142-2.956 3.5109515-1.6432305 5.7559242-5.1675375 5.761-9.044v-13c.061006-1.60922649-.5515224-3.17105294-1.6902347-4.30976529-1.1387124-1.13871234-2.7005388-1.75124066-4.3097653-1.69023471-.5522847 0-1 .44771525-1 1 .0350942.54042964-.1643231 1.06978421-.5472695 1.45273054-.3829463.38294634-.9123009.58236363-1.4527305.54726946h-2c-4.9680501.00606096-8.99393904 4.03194995-9 9v7c.00507584 3.8764625 2.2500485 7.4007695 5.761 9.044-.1139121 1.0676585-.5055849 2.0868352-1.136 2.956h-.8c-1.2181148-.0009563-2.4235293.2474776-3.542.73l-3.229 1.37c-3.67420306 1.5824642-6.05437311 5.1995049-6.054 9.2v8.7c.00606096 4.9680501 4.03194995 8.993939 9 9h21c1.1045695 0 2-.8954305 2-2v-15.015l6.938 2.773c1.9154664.7682112 4.0723138.6520246 5.8941699-.3175113 1.8218562-.969536 3.1230374-2.6936061 3.5558301-4.7114887l2.5-11.681c.4182589-1.9028997-.3212481-3.8738738-1.888-5.032v-7.016h5c1.1045695 0 2-.8954305 2-2v-12c0-1.1045695-.8954305-2-2-2zm-43 18v-7c.0044086-3.86416566 3.1358343-6.99559136 7-7h2c1.8044054.03870345 3.4027528-1.1577879 3.874-2.9 1.9011966.28310955 3.2635373 1.98276684 3.126 3.9v3.365c-1.1160064-.9386975-2.542967-1.42564781-4-1.365-.5522847 0-1 .44771525-1 1 0 .5522847.4477153 1 1 1 1.073388-.0427025 2.1158038.3649955 2.8754042 1.1245958.7596003.7596004 1.1672983 1.8020162 1.1245958 2.8754042v5c0 4.418278-3.581722 8-8 8s-8-3.581722-8-8zm8 10c.7841319-.002893 1.5651889-.0982176 2.327-.284.1908632 1.1967384.6443883 2.3363569 1.328 3.337-1.077299.7174243-2.3648648 1.0510289-3.655.947-1.2900668.1024545-2.5773407-.229484-3.657-.943.6848653-1.0016528 1.1391011-2.1427068 1.33-3.341.7618111.1857824 1.5428681.281107 2.327.284zm29.932-.37-2.5 11.681c-.3096034 1.4412105-1.2393876 2.6723627-2.5408977 3.3644708-1.3015101.692108-2.8421021.7746353-4.2101023.2255292l-11.36-4.54c-.3318997-.1325456-.7093-.0779563-.9900376.1432045-.2807377.2211609-.4221621.5752937-.371.9290001.051162.3537064.2871378.6532499.6190376.7857954l2.421.967v15.814h-5.026c.6618067-.8603889 1.0223232-1.9145307 1.026-3-.0033061-2.7600532-2.2399468-4.9966939-5-5h-11v-7.7c0-.5522847-.44771525-1-1-1s-1 .4477153-1 1v8.7c0 .5522847.44771525 1 1 1h12c1.6568542 0 3 1.3431458 3 3s-1.3431458 3-3 3h-12c-3.86416566-.0044086-6.99559136-3.1358343-7-7v-8.7c.00033572-3.1998575 1.90367135-6.0929906 4.842-7.36l3.223-1.371c.869757-.3760794 1.8074176-.5697379 2.755-.569h.644c.628.782 2.146 2 5.536 2s4.908-1.218 5.536-2h1.924c1.4007905.0003895 2.7886296.2681823 4.089.789l9.16 3.66c.2736055.1093779.5815231.0925204.841553-.0460723.2600299-.1385926.4457008-.3848116.507447-.6729277l2.01-9.361c.1628758-.777565.6312785-1.4571091 1.3-1.886.6684207-.4336785 1.4821367-.5830338 2.261-.415 1.6181194.3493988 2.6474068 1.9434517 2.3 3.562zm-1.932-5.524c-.6598298-.1350248-1.3401702-.1350248-2 0v-6.106h2zm7-8.106h-16v-12h16z" fill="#000"/></g></g></g></svg>