<svg height="496pt" viewBox="0 0 496 496" width="496pt" xmlns="http://www.w3.org/2000/svg"><path d="m200 211.199219c0 17.519531 16 17.519531 16 35.121093 0 17.601563-16 17.601563-16 35.199219 0 17.601563 16 17.601563 16 35.28125 0 1.121094-.078125 2.160157-.160156 3.199219l-15.039063 5.039062c-6.320312 2.160157-12 5.519532-16.800781 9.839844v-22.878906h-144v136c0 4.398438 3.601562 8 8 8h168c0 17.679688-14.320312 32-32 32h-144c-17.679688 0-32-14.320312-32-32v-224c0-17.679688 14.320312-32 32-32h144c6.160156 0 12 1.761719 16.878906 4.800781-.558594 1.839844-.878906 3.917969-.878906 6.398438zm0 0" fill="#ccd1d9"/><path d="m40 312v136c0 4.398438 3.601562 8 8 8h120v-85.441406c0-3.597656.398438-7.199219 1.199219-10.558594 2.160156-9.839844 7.441406-18.640625 14.800781-25.121094v-22.878906zm0 0" fill="#fcd770"/><path d="m40 232h144v48h-144zm0 0" fill="#69d6f4"/><path d="m112 200h-57.121094c-14.160156-14.398438-22.878906-34.160156-22.878906-56 0-44.160156 35.839844-80 80-80s80 35.839844 80 80c0 21.839844-8.71875 41.601562-22.878906 56zm0 0" fill="#fcd770"/><path d="m424 456h-72l-8-80 13.839844-23.121094 18.160156 15.121094 16-64 48.238281 16.078125 14.960938 4.960937c19.601562 6.5625 32.800781 24.882813 32.800781 45.519532v85.441406zm0 0" fill="#e6e9ed"/><path d="m232 456h-64v-85.441406c0-3.597656.398438-7.199219 1.199219-10.558594 2.160156-9.839844 7.441406-18.640625 14.800781-25.121094 4.800781-4.320312 10.480469-7.679687 16.800781-9.839844l15.039063-5.039062 48.160156-16 16 64 18.160156-15.121094 13.839844 23.121094-8 80zm0 0" fill="#e6e9ed"/><path d="m392 304-16 64-18.160156-15.121094-29.839844-24.878906 40-32zm0 0" fill="#aab2bd"/><path d="m328 328-29.839844 24.878906-18.160156 15.121094-16-64 24-8zm0 0" fill="#aab2bd"/><path d="m357.839844 352.878906-29.839844-24.878906-29.839844 24.878906 13.839844 23.121094-8 80h48l-8-80zm0 0" fill="#ff826e"/><path d="m395.921875 152c-21.761719 0-43.042969-4.320312-62.800781-12.480469-19.679688-8.160156-37.761719-20.160156-53.121094-35.519531-18.480469 4.640625-31.519531 21.039062-31.921875 40h-.078125c-17.679688 0-32 14.320312-32 32v-56c0-61.839844 50.160156-112 112-112 30.878906 0 58.878906 12.558594 79.199219 32.800781 20.242187 20.320313 32.800781 48.320313 32.800781 79.199219v56c0-8.800781-3.601562-16.800781-9.359375-22.640625-5.839844-5.757813-13.839844-9.359375-22.640625-9.359375v8zm0 0" fill="#b27946"/><path d="m440 176c0 17.601562 16 17.601562 16 35.199219 0 17.519531-16 17.519531-16 35.121093 0 17.601563 16 17.601563 16 35.199219 0 17.601563-16 17.601563-16 35.28125 0 1.121094.078125 2.238281.238281 3.277344l-48.238281-16.078125-24-8v-26.71875c21.761719-12.5625 36.960938-35.042969 39.601562-61.28125h.398438c17.679688 0 32-14.320312 32-32zm0 0" fill="#b27946"/><path d="m288 269.28125v26.71875l-24 8-48.160156 16c.082031-1.039062.160156-2.078125.160156-3.199219 0-17.679687-16-17.679687-16-35.28125 0-17.597656 16-17.597656 16-35.199219 0-17.601562-16-17.601562-16-35.121093 0-2.480469.320312-4.558594.878906-6.398438 3.28125-11.519531 15.121094-13.679687 15.121094-28.800781 0 8.800781 3.601562 16.800781 9.359375 22.640625 5.839844 5.757813 13.839844 9.359375 22.640625 9.359375h.398438c1.839843 18.878906 10.320312 35.839844 23.042968 48.558594 4.957032 4.960937 10.480469 9.203125 16.558594 12.722656zm0 0" fill="#b27946"/><g fill="#f0d0b4"><path d="m368 269.28125v26.71875l-40 32-40-32v-26.71875c11.761719 6.796875 25.441406 10.71875 40 10.71875s28.238281-3.921875 40-10.71875zm0 0"/><path d="m430.640625 153.359375c5.757813 5.839844 9.359375 13.839844 9.359375 22.640625 0 17.679688-14.320312 32-32 32h-.398438c.238282-2.640625.398438-5.28125.398438-8v-56c8.800781 0 16.800781 3.601562 22.640625 9.359375zm0 0"/><path d="m333.121094 139.519531c19.757812 8.160157 41.039062 12.480469 62.800781 12.480469h12.078125v48c0 2.71875-.160156 5.359375-.398438 8-2.640624 26.238281-17.839843 48.71875-39.601562 61.28125-11.761719 6.796875-25.441406 10.71875-40 10.71875s-28.238281-3.921875-40-10.71875c-6.078125-3.519531-11.601562-7.761719-16.558594-12.722656-12.722656-12.71875-21.203125-29.679688-23.042968-48.558594-.238282-2.640625-.398438-5.28125-.398438-8v-55.039062c0-.320313 0-.640626.078125-.960938.402344-18.960938 13.441406-35.359375 31.921875-40 15.359375 15.359375 33.441406 27.359375 53.121094 35.519531zm0 0"/><path d="m248 144.960938v55.039062c0 2.71875.160156 5.359375.398438 8h-.398438c-8.800781 0-16.800781-3.601562-22.640625-9.359375-5.757813-5.839844-9.359375-13.839844-9.359375-22.640625 0-17.679688 14.320312-32 32-32h.078125c-.078125.320312-.078125.640625-.078125.960938zm0 0"/></g><path d="m296 168c0 4.417969-3.582031 8-8 8s-8-3.582031-8-8 3.582031-8 8-8 8 3.582031 8 8zm0 0"/><path d="m376 168c0 4.417969-3.582031 8-8 8s-8-3.582031-8-8 3.582031-8 8-8 8 3.582031 8 8zm0 0"/><path d="m328 232c-8.824219 0-16-7.175781-16-16h-16c0 17.648438 14.351562 32 32 32s32-14.351562 32-32h-16c0 8.824219-7.175781 16-16 16zm0 0"/><path d="m457.710938 317.480469-9.445313-3.152344c.589844-4.007813 2.558594-6.390625 5.65625-9.792969 4.246094-4.679687 10.078125-11.085937 10.078125-22.984375 0-11.886719-5.832031-18.304687-10.078125-22.984375-3.699219-4.070312-5.921875-6.511718-5.921875-12.222656 0-5.695312 2.222656-8.152344 5.910156-12.199219 4.257813-4.679687 10.089844-11.082031 10.089844-22.976562s-5.832031-18.289063-10.089844-22.96875c-3.6875-4.046875-5.910156-6.503907-5.910156-12.199219v-56c0-66.167969-53.832031-120-120-120s-120 53.832031-120 120v56c0 5.695312-2.222656 8.152344-5.910156 12.199219-1.578125 1.730469-3.363282 3.703125-4.992188 6.089843-3.664062-1.273437-7.488281-2.007812-11.402344-2.175781 9.304688-14.183593 14.304688-30.785156 14.304688-48.113281 0-48.519531-39.480469-88-88-88s-88 39.480469-88 88c0 17.34375 5.007812 33.96875 14.328125 48.167969-21.265625.894531-38.328125 18.351562-38.328125 39.832031v224c0 22.054688 17.945312 40 40 40h144c19.320312 0 35.480469-13.769531 39.191406-32h272.808594v-93.40625c0-24.136719-15.390625-45.488281-38.289062-53.113281zm-15.621094-118.511719c3.6875 4.054688 5.910156 6.511719 5.910156 12.199219s-2.222656 8.152343-5.910156 12.199219c-4.257813 4.6875-10.089844 11.089843-10.089844 22.976562s5.832031 18.304688 10.078125 22.984375c3.699219 4.0625 5.921875 6.503906 5.921875 12.214844 0 5.714843-2.222656 8.167969-5.921875 12.226562-3.238281 3.574219-7.382813 8.175781-9.175781 15.429688l-56.902344-18.96875v-16.574219c19.960938-13.046875 34.265625-33.96875 38.574219-58.328125 11.121093-1.855469 20.714843-8.214844 26.730469-17.238281.253906.292968.527343.597656.785156.878906zm-114.089844 73.03125c-39.703125 0-72-32.296875-72-72v-55.015625c0-14.289063 8.792969-26.863281 21.839844-31.921875 32.03125 30.304688 73.761718 46.9375 118.039062 46.9375h4.121094v40c0 39.703125-32.296875 72-72 72zm0 16c11.296875 0 22.0625-2.214844 32-6.113281v10.265625l-32 25.609375-32-25.609375v-10.265625c9.9375 3.898437 20.703125 6.113281 32 6.113281zm-41.601562 16.96875 28.953124 23.160156-30.679687 25.566406-11.121094-44.449218zm32.839843 79.03125h17.523438l6.398437 64h-30.320312zm20.234375-16h-22.9375l-8.015625-13.351562 19.480469-16.234376 19.480469 16.234376zm1.175782-39.871094 28.953124-23.160156 12.839844 4.277344-11.121094 44.449218zm75.351562-174.65625c9.289062 3.3125 16 12.113282 16 22.527344s-6.710938 19.214844-16 22.527344zm-88-137.472656c57.34375 0 104 46.65625 104 104v24.207031c-4.671875-3.535156-10.054688-6.183593-16-7.390625v-24.816406h-16v32h-4.121094c-41.640625 0-80.78125-16.207031-110.222656-45.65625l-3.199219-3.199219-4.394531 1.101563c-19.695312 4.921875-34.140625 21-37.367188 40.496094-6.207031 1.152343-11.847656 3.792968-16.695312 7.464843v-24.207031c0-57.34375 46.65625-104 104-104zm-104 160c0-10.414062 6.710938-19.214844 16-22.527344v45.046875c-9.289062-3.304687-16-12.105469-16-22.519531zm-10.089844 22.96875c.257813-.28125.539063-.59375.800782-.890625 5.984374 8.960937 15.535156 15.304687 26.703124 17.234375 4.296876 24.367188 18.609376 45.296875 38.578126 58.351562v16.574219l-56.902344 18.96875c-1.792969-7.253906-5.9375-11.855469-9.179688-15.429687-3.6875-4.066406-5.910156-6.519532-5.910156-12.234375 0-5.710938 2.222656-8.160157 5.921875-12.214844 4.246094-4.679687 10.078125-11.097656 10.078125-22.984375s-5.832031-18.289062-10.089844-22.96875c-3.6875-4.054688-5.910156-6.511719-5.910156-12.207031 0-5.695313 2.222656-8.144531 5.910156-12.199219zm-101.910156-126.96875c39.703125 0 72 32.296875 72 72 0 17.886719-6.574219 34.777344-18.441406 48h-45.558594v-9.472656c9.289062-3.3125 16-12.113282 16-22.527344 0-13.230469-10.769531-24-24-24-4.414062 0-8-3.585938-8-8s3.585938-8 8-8 8 3.585938 8 8h16c0-10.414062-6.710938-19.214844-16-22.527344v-17.472656h-16v17.472656c-9.289062 3.3125-16 12.113282-16 22.527344 0 13.230469 10.769531 24 24 24 4.414062 0 8 3.585938 8 8s-3.585938 8-8 8-8-3.585938-8-8h-16c0 10.414062 6.710938 19.214844 16 22.527344v9.472656h-45.558594c-11.867187-13.222656-18.441406-30.113281-18.441406-48 0-39.703125 32.296875-72 72-72zm96 376v8c0 13.230469-10.769531 24-24 24h-144c-13.230469 0-24-10.769531-24-24v-224c0-13.230469 10.769531-24 24-24h144c2.792969 0 5.519531.535156 8.105469 1.464844-.027344.574218-.105469 1.101562-.105469 1.703125 0 11.886719 5.832031 18.289062 10.089844 22.96875 3.6875 4.054687 5.910156 6.511719 5.910156 12.207031 0 5.710938-2.222656 8.160156-5.921875 12.214844-4.246094 4.679687-10.078125 11.097656-10.078125 22.984375 0 11.898437 5.832031 18.304687 10.078125 22.984375 3.097656 3.410156 5.066406 5.792968 5.65625 9.792968l-9.445313 3.152344c-2.191406.726563-4.242187 1.695313-6.289062 2.664063v-16.136719h-160v144c0 8.824219 7.175781 16 16 16h144v-16h-16v-77.40625c0-17.242188 10.992188-32.496094 27.351562-37.945312l54.984376-18.328126 16.992187 67.984376 20.75-17.289063 7.699219 12.832031-7.015625 70.152344h-56.761719v-3.3125l-7.03125-7.03125c-5.703125-5.703125-8.96875-13.59375-8.96875-21.65625s3.265625-15.953125 8.96875-21.65625l7.03125-7.03125v-19.3125h-16v12.6875l-2.34375 2.34375c-8.679688 8.679688-13.65625 20.695312-13.65625 32.96875 0 11.839844 4.664062 23.398438 12.785156 32zm-48 0h-16v-32h16zm-64-96v-32h32v32zm32 16v32h-32v-32zm-48-16h-32v-32h32zm-32 16h32v32h-32zm0 48h32v32h-32zm48 0h32v32h-32zm64-45.40625v29.40625h-16v-32h16.207031c-.039062.871094-.207031 1.710938-.207031 2.59375zm3.257812-18.59375h-19.257812v-32h32v11.398438c-5.703125 5.816406-10.023438 12.867187-12.742188 20.601562zm316.742188 96h-44.785156c8.121094-8.601562 12.785156-20.160156 12.785156-32 0-12.273438-4.976562-24.289062-13.65625-32.96875l-2.34375-2.34375v-12.6875h-16v19.3125l7.03125 7.03125c5.703125 5.703125 8.96875 13.59375 8.96875 21.65625s-3.265625 15.953125-8.96875 21.65625l-7.03125 7.03125v3.3125h-56.761719l-7.015625-70.160156 7.699219-12.832032 20.75 17.289063 16.992187-67.984375 54.984376 18.328125c16.359374 5.464844 27.351562 20.710937 27.351562 37.953125zm0 0"/><path d="m32 224v64h160v-64zm144 48h-128v-32h128zm0 0"/></svg>