<svg id="Capa_1" enable-background="new 0 0 512 512" height="512" viewBox="0 0 512 512" width="512" xmlns="http://www.w3.org/2000/svg"><g><g><path d="m428.684 111.26h-345.368c-10.233 0-18.528-8.295-18.528-18.528v-66.704c0-10.233 8.295-18.528 18.528-18.528h345.367c10.233 0 18.528 8.295 18.528 18.528v66.703c.001 10.233-8.294 18.529-18.527 18.529z" fill="#8379c1"/><path d="m447.21 26.03v66.7c0 10.23-8.29 18.53-18.53 18.53h-24.26c10.23 0 18.52-8.3 18.52-18.53v-66.7c0-10.23-8.29-18.53-18.52-18.53h24.26c10.24 0 18.53 8.3 18.53 18.53z" fill="#6e61b6"/><path d="m357.4 320.11-38.98 55.12c-6.11 8.63-9.39 18.95-9.39 29.53v75.44h-150.19v-57.81c0-7.2-1.27-14.35-3.75-21.12l-16.47-44.9c-4.21-11.49-6.37-23.63-6.37-35.87v-106.62c0-6.1 2.47-11.63 6.47-15.63s9.53-6.47 15.63-6.47c12.21 0 22.1 9.89 22.1 22.1v-7.28c0-6.1 2.47-11.63 6.47-15.63s9.52-6.47 15.63-6.47c12.19 0 22.08 9.88 22.09 22.08.01-6.1 2.48-11.62 6.48-15.62 4-3.99 9.52-6.46 15.62-6.46 12.2 0 22.1 9.89 22.1 22.1v-125.89c0-6.1 2.47-11.63 6.47-15.63 1.32-1.32 2.81-2.47 4.43-3.42 3.28-1.94 7.11-3.05 11.2-3.05 12.2 0 22.09 9.9 22.09 22.1v197.87l16.56-16.56c5.92-5.92 9.24-13.94 9.24-22.31v-29.14c0-10.07 7.93-18.6 18-18.79 9.76-.17 17.92 7.31 18.63 17.01l4.01 41.69c2.37 24.61-4.03 49.27-18.07 69.63z" fill="#ffcebf"/><path d="m357.4 320.11-38.98 55.12c-6.11 8.63-9.39 18.95-9.39 29.53v75.44h-20.16v-75.44c0-10.58 3.28-20.9 9.38-29.53l38.99-55.12c14.03-20.36 20.43-45.02 18.06-69.63l-4.01-41.69c-.42-5.85-3.56-10.9-8.13-13.94 2.78-1.87 6.09-3 9.67-3.07 9.76-.17 17.92 7.31 18.63 17.01l4.01 41.69c2.37 24.61-4.03 49.27-18.07 69.63z" fill="#ffb09e"/><path d="m309.03 81.268v197.312c-12.2 0-22.09-9.89-22.09-22.09v-184.03c0-6.12-5.08-11.02-11.2-10.8 3.21-1.898 6.946-3.048 10.937-3.048 12.294 0 22.353 9.471 22.353 22.656z" fill="#ffb09e"/><path d="m313.583 440.895h-159.293c-8.365 0-15.147 6.782-15.147 15.147v33.311c0 8.366 6.782 15.147 15.147 15.147h159.293c8.365 0 15.147-6.782 15.147-15.147v-33.311c0-8.365-6.782-15.147-15.147-15.147z" fill="#deecf1"/><path d="m328.73 456.04v33.31c0 8.37-6.78 15.15-15.15 15.15h-20c8.37 0 15.15-6.78 15.15-15.15v-33.31c0-8.36-6.78-15.14-15.15-15.14h20c8.37 0 15.15 6.78 15.15 15.14z" fill="#a8d3d8"/></g><g><path d="m428.684 0h-345.368c-14.352 0-26.028 11.677-26.028 26.028v66.703c0 14.352 11.676 26.028 26.028 26.028h144.324c4.142 0 7.5-3.357 7.5-7.5s-3.358-7.5-7.5-7.5h-144.324c-6.081 0-11.028-4.947-11.028-11.028v-66.703c0-6.081 4.947-11.028 11.028-11.028h345.367c6.081 0 11.028 4.947 11.028 11.028v66.703c0 6.081-4.947 11.028-11.028 11.028h-112.153v-20.694c11.224 8.581 28.453 8.359 37.862-2.856 2.663-3.173 2.249-7.903-.924-10.566-3.172-2.662-7.903-2.249-10.566.924-1.986 2.364-5.28 3.618-8.307 3.618-8.164 0-14.806-6.642-14.806-14.806s6.642-14.806 14.806-14.806c2.968 0 5.829.873 8.272 2.524 3.432 2.317 8.095 1.416 10.413-2.016 2.319-3.433 1.417-8.095-2.016-10.414-4.934-3.333-10.698-5.095-16.67-5.095-15.698 0-28.592 12.201-29.717 27.617-2.95-2.257-6.336-3.969-10.007-4.992l-.147-15.197c-.04-4.118-3.39-7.428-7.498-7.428-.024 0-.049 0-.074 0-4.142.04-7.467 3.431-7.427 7.572l.144 14.833c-1.157.284-2.294.638-3.406 1.059l-13.911-20.143c-1.865-2.701-5.27-3.874-8.403-2.898-3.134.977-5.268 3.878-5.268 7.16v44.528c0 4.389 4.14 7.984 8.459 7.432v91.74c-11.973-6.818-27.556-4.197-36.712 6.058-13.026-14.605-37.115-12.426-47.341 4.231-18.872-15.746-48.537-1.78-48.537 22.733v106.623c0 28.896 13.505 56.655 23.297 83.35 3.549 9.688 3.292 19.632 3.292 29.744-11.098 1.451-19.697 10.961-19.697 22.448v33.311c0 12.488 10.159 22.647 22.647 22.647h17.21c4.142 0 7.5-3.357 7.5-7.5s-3.358-7.5-7.5-7.5h-17.21c-4.217 0-7.647-3.431-7.647-7.647v-33.311c0-4.216 3.43-7.646 7.647-7.646h159.293c4.217 0 7.647 3.431 7.647 7.646v33.311c0 4.217-3.43 7.647-7.647 7.647h-107.081c-4.142 0-7.5 3.357-7.5 7.5s3.358 7.5 7.5 7.5h107.083c12.488 0 22.647-10.159 22.647-22.647v-33.311c0-11.488-8.6-20.999-19.7-22.448 0-17.935-2.939-38.562 8.013-54.033 27.856-39.39 63.388-77.918 58.392-129.798l-4.002-41.615c-1.036-13.477-12.295-23.87-25.786-23.87-.152 0-.306.002-.458.004-13.983.264-25.359 12.057-25.359 26.289v29.14c0 8.687-4.761 15.092-10.8 20.763v-141.714h112.153c14.352 0 26.028-11.677 26.028-26.028v-66.704c.001-14.351-11.675-26.028-26.027-26.028zm-97.791 267.323c7.375-7.376 11.437-17.182 11.437-27.613v-29.14c0-6.115 4.773-11.181 10.63-11.291.064-.001.128-.002.192-.002 5.674 0 10.412 4.384 10.827 10.061.004.057.009.113.015.17l4.01 41.691c4.549 47.237-30.315 83.794-55.706 119.697-13.171 18.604-10.769 40.977-10.769 62.499h-135.189c0-11.871-.045-23.342-4.209-34.709-9.111-24.839-22.381-51.299-22.381-78.187v-106.619c0-7.898 6.685-14.6 14.6-14.6 8.05 0 14.6 6.55 14.6 14.6v13.12c0 4.143 3.358 7.5 7.5 7.5s7.5-3.357 7.5-7.5v-20.4c0-7.898 6.684-14.6 14.6-14.6 8.039 0 14.583 6.543 14.59 14.586v20.414c0 4.143 3.358 7.5 7.5 7.5s7.5-3.357 7.5-7.5v-20.408c.013-7.893 6.683-14.592 14.6-14.592 8.05 0 14.6 6.55 14.6 14.6v20.4c0 4.143 3.358 7.5 7.5 7.5s7.5-3.357 7.5-7.5v-146.29c0-7.893 6.683-14.6 14.6-14.6 8.045 0 14.59 6.55 14.59 14.6v197.87c0 6.447 8.187 9.924 12.803 5.303z"/><path d="m170.041 34.845c-1.319-3.203-4.407-5.271-7.87-5.271-.003 0-.007 0-.011 0-3.467.004-6.555 2.08-7.867 5.289-.023.056-.045.112-.067.17l-16.751 43.983c-1.474 3.87.469 8.203 4.339 9.678 3.874 1.477 8.204-.468 9.678-4.34l2.332-6.123h16.561l2.303 6.103c1.447 3.832 5.846 5.81 9.665 4.368 3.875-1.462 5.832-5.789 4.369-9.665l-16.599-43.985c-.026-.07-.054-.139-.082-.207zm-10.503 28.386 2.606-6.841 2.581 6.841z"/><path d="m107.833 29.574c-4.142 0-7.5 3.357-7.5 7.5v44.574c0 3.656 2.637 6.779 6.241 7.394.531.09 11.846.135 16.922.106 4.142-.023 7.481-3.399 7.458-7.542-.023-4.128-3.376-7.458-7.499-7.458-.014 0-.028 0-.042 0-2.724.016-5.583.027-8.08.033v-37.107c0-4.142-3.358-7.5-7.5-7.5z"/><path d="m373.295 29.574c-4.142 0-7.5 3.357-7.5 7.5v44.611c0 4.143 3.358 7.5 7.5 7.5s7.5-3.357 7.5-7.5v-15.571h15.872v15.571c0 4.143 3.358 7.5 7.5 7.5s7.5-3.357 7.5-7.5v-44.611c0-4.143-3.358-7.5-7.5-7.5s-7.5 3.357-7.5 7.5v14.04h-15.872v-14.04c0-4.142-3.358-7.5-7.5-7.5z"/><path d="m200.734 29.574c-4.142 0-7.5 3.357-7.5 7.5v30.697c0 27.88 45.999 27.748 45.999-.032v-30.665c0-4.143-3.358-7.5-7.5-7.5s-7.5 3.357-7.5 7.5v30.665c0 8.323-15.999 8.422-15.999.032v-30.697c0-4.142-3.358-7.5-7.5-7.5z"/><ellipse cx="287.323" cy="472.698" rx="7.5" ry="7.5" transform="matrix(.383 -.924 .924 .383 -259.346 557.257)"/></g></g></svg>