<?xml version="1.0"?>
<svg xmlns="http://www.w3.org/2000/svg" id="Layer_1" data-name="Layer 1" viewBox="0 0 512 512" width="512" height="512"><title>Business proposal</title><path d="M497.93,36.37V67.51a10,10,0,0,1-10,10H117.75a10,10,0,0,1-10-10V36.37a10,10,0,0,1,10-10H487.93A10,10,0,0,1,497.93,36.37Z" style="fill:#6fe3ff"/><path d="M476.94,77.51v222.3c0,17.34-13.38,31.39-29.89,31.39H161.17a65.632,65.632,0,0,0,8.6-32.58v-.1a16.77,16.77,0,0,0,13.82-16.51,16.472,16.472,0,0,0-.48-4,12.624,12.624,0,0,0-11.25-9.62l.04-.49,1.52-10.67a69.712,69.712,0,0,0-45.3-70.16l.12-.32V77.51ZM370.98,269.84v-120H346.7v120Zm-56,0v-80H290.7v80Zm-56,0v-60H234.7v60Z" style="fill:#6fe3ff"/><rect x="346.7" y="149.84" width="24.28" height="120" style="fill:#6fe3ff"/><rect x="290.7" y="189.84" width="24.28" height="80" style="fill:#6fe3ff"/><rect x="234.7" y="209.84" width="24.28" height="60" style="fill:#6fe3ff"/><path d="M194.07,429.4v56.23h-90V417.15l20.26,13.51,21.12-40.34,29.32,10.57A35.165,35.165,0,0,1,194.07,429.4ZM121.8,450.15a1.355,1.355,0,1,0-1.35,1.35A1.357,1.357,0,0,0,121.8,450.15Zm0,19.7a1.355,1.355,0,1,0-1.35,1.35A1.357,1.357,0,0,0,121.8,469.85Z" style="fill:#e48e66"/><path d="M161.17,331.2A65.881,65.881,0,0,1,38.02,298.62v-.1c0,.27-5.46-1.97-5.93-2.26a16.8,16.8,0,0,1-7.45-18.25,12.632,12.632,0,0,1,11.3-9.62s43.33-6.24,39.96-45.88a11.916,11.916,0,0,1,11.8,11.91,11.1,11.1,0,0,0,11.11,11.11h39.45a20.383,20.383,0,0,1,20.38,20.38A6.5,6.5,0,0,0,170.2,270l1.7-2.1-.04.49a12.624,12.624,0,0,1,11.25,9.62,16.472,16.472,0,0,1,.48,4,16.77,16.77,0,0,1-13.82,16.51v.1A65.632,65.632,0,0,1,161.17,331.2Z" style="fill:#f8ec7d"/><path d="M128.12,187.07a69.712,69.712,0,0,1,45.3,70.16L171.9,267.9l-1.7,2.1a6.5,6.5,0,0,1-11.56-4.09,20.383,20.383,0,0,0-20.38-20.38H98.81A11.1,11.1,0,0,1,87.7,234.42a11.916,11.916,0,0,0-11.8-11.91l-34.54-.35,18.79-12.49a21.22,21.22,0,0,0,9.47-17.66c5.39-2.58,10.55-5.32,16.36-6.88a69.457,69.457,0,0,1,42.14,1.94Z" style="fill:#e48e66"/><polygon points="145.45 390.32 124.33 430.66 104.07 417.15 126.27 394.95 146.6 374.62 146.6 388.13 145.45 390.32" style="fill:#e48e66"/><path d="M126.27,369.07v25.88l-22.2,22.2L81.92,395.01V361.28l.17-.48a66.1,66.1,0,0,0,44.09-.17l.09.27v8.17Z" style="fill:#f8ec7d"/><path d="M104.07,417.15v68.48h-90V429.4a35.144,35.144,0,0,1,19.3-28.51l29.31-10.57L83.8,430.66Z" style="fill:#e48e66"/><polygon points="62.68 390.32 61.53 388.13 61.53 374.62 81.92 395.01 104.07 417.15 83.8 430.66 62.68 390.32" style="fill:#e48e66"/><path d="M75.9,222.51c3.37,39.64-39.96,45.88-39.96,45.88l-.06-.9-.61-4.15-.89-6.11a69.282,69.282,0,0,1,5.86-33.19l1.12-1.88Z" style="fill:#e48e66"/><path d="M487.93,20H117.75C108.927,20,102,27.548,102,36.37V67.51C102,76.332,108.927,84,117.75,84H122v95a74.478,74.478,0,0,0-37.636.331,82.93,82.93,0,0,0-14.92,6.081c-.812.394-1.61.79-2.429,1.182a5.992,5.992,0,0,0-3.4,5.412,15.209,15.209,0,0,1-6.787,12.663L38.038,217.164a5.989,5.989,0,0,0-1.833,1.925l-1.12,1.88a5.982,5.982,0,0,0-.322.621,75.773,75.773,0,0,0-6.369,36.055c.011.15.027.3.049.45l.858,5.889A18.453,18.453,0,0,0,18.81,276.59a23.09,23.09,0,0,0,3.574,18.622,22.839,22.839,0,0,0,6.555,6.154,21.1,21.1,0,0,0,3.2,1.461,72,72,0,0,0,43.146,61.744l-15.34,4.191.02.073c-.247.067-.259.142-.5.242A5.792,5.792,0,0,0,56,374.62v11.9l-24.43,8.727a8.046,8.046,0,0,0-.767.278A41.5,41.5,0,0,0,8.115,428.9c-.014.166-.115.332-.115.5v56.23A6.387,6.387,0,0,0,14.07,492h180c3.314,0,5.93-3.057,5.93-6.37V429.4c0-.167.028-.333.014-.5a41.392,41.392,0,0,0-22.574-33.376c-.212-.106-.221-.2-.444-.279l-24-8.726v-11.9a6.188,6.188,0,0,0-3.9-5.543,7.4,7.4,0,0,0-.818-.237l-.048-.008-15.695-4.378A73.015,73.015,0,0,0,164.547,337H289.962l-53.956,58.134A6.051,6.051,0,0,0,240.4,405.3a5.973,5.973,0,0,0,4.4-1.9l57.8-62.157,57.8,62.166a6,6,0,0,0,8.479.311,6.12,6.12,0,0,0,.309-8.579L315.218,337H447.05c19.79,0,35.95-16.573,35.95-37.19V84h4.93C496.752,84,504,76.332,504,67.51V36.37A16.4,16.4,0,0,0,487.93,20ZM63.474,214.665a27.212,27.212,0,0,0,11.863-18.757,69.592,69.592,0,0,1,12.2-4.984,63.463,63.463,0,0,1,38.5,1.772A64.046,64.046,0,0,1,167.448,256.6l-1.254,8.809-.663.818a.408.408,0,0,1-.552.155.417.417,0,0,1-.339-.476,25.668,25.668,0,0,0-7.727-18.418A25.99,25.99,0,0,0,138.26,240H98.81a5.322,5.322,0,0,1-5.11-5.345,18.061,18.061,0,0,0-5.178-12.71,17.815,17.815,0,0,0-12.561-5.376l-15.034-.182ZM44.984,228.2l25.052.254C69.079,249.9,50.754,258.174,41,261.065l-.653-4.47A63.8,63.8,0,0,1,44.984,228.2ZM137.9,391.806l-15.79,30.161-8.622-5.749ZM132,380.465v-3.538l2.779.759Zm-12,12-16.025,16.2L88,392.519V368.7a69.027,69.027,0,0,0,15.805,1.8A68.255,68.255,0,0,0,120,368.611ZM76,380.522l-2.894-2.893,2.894-.79Zm18.65,35.7-8.628,5.751L70.23,391.806ZM20,429.662a29.585,29.585,0,0,1,15.72-23.254l24.052-8.668,18.7,35.7A6.01,6.01,0,0,0,83.8,436.66a5.893,5.893,0,0,0,3.294-1.007L98,428.36V480H20Zm168,0V480H110V428.362l10.966,7.29a6.028,6.028,0,0,0,8.675-2.209l18.7-35.707,24.011,8.672A29.524,29.524,0,0,1,188,429.662Zm-63.856-74.676A59.891,59.891,0,0,1,44,298.62v-.1a5.993,5.993,0,0,0-5.072-5.93c-.987-.346-3.108-1.21-3.889-1.563a10.8,10.8,0,0,1-4.573-11.588,6.642,6.642,0,0,1,6.023-5.074c.1-.01.2-.029.3-.044v.008A67.235,67.235,0,0,0,60.366,265.4c12.276-7.681,19.474-18.579,21.258-31.888a9.4,9.4,0,0,1,.076,1.142A17.331,17.331,0,0,0,98.81,252h39.45a13.99,13.99,0,0,1,14.38,14.028,12.49,12.49,0,0,0,21.069,9.029,6.417,6.417,0,0,1,3.58,4.422,10.437,10.437,0,0,1,.3,2.538,10.634,10.634,0,0,1-8.75,10.6,5.9,5.9,0,0,0-4.84,5.9v.1a60.11,60.11,0,0,1-39.856,56.366ZM471,299.81c0,14-10.777,25.19-23.95,25.19H170.685a71.067,71.067,0,0,0,4.95-22.083A22.665,22.665,0,0,0,189.59,281.96a22.308,22.308,0,0,0-.651-5.4A18.427,18.427,0,0,0,178.514,264l.846-5.928c.02-.144.036-.286.046-.431a75.064,75.064,0,0,0-12.388-46.8A72.911,72.911,0,0,0,134,183.092V84H471ZM492,67a4,4,0,0,1-4,4H118a4,4,0,0,1-4-4V36a4,4,0,0,1,4-4H488a4,4,0,0,1,4,4Z" style="fill:#63316d"/><path d="M265,210a6,6,0,0,0-6-6H235a6,6,0,0,0-6,6v60a6,6,0,0,0,6,6h24a6,6,0,0,0,6-6Zm-24,6h12v48H241Z" style="fill:#63316d"/><path d="M321,190a6,6,0,0,0-6-6H291a6,6,0,0,0-6,6v80a6,6,0,0,0,6,6h24a6,6,0,0,0,6-6Zm-24,6h12v68H297Z" style="fill:#63316d"/><path d="M377,150a6,6,0,0,0-6-6H347a6,6,0,0,0-6,6V270a6,6,0,0,0,6,6h24a6,6,0,0,0,6-6Zm-24,6h12V264H353Z" style="fill:#63316d"/><path d="M120.45,462.5a7.35,7.35,0,1,0,7.35,7.35A7.363,7.363,0,0,0,120.45,462.5Zm0,12a4.65,4.65,0,1,1,4.64-4.65A4.655,4.655,0,0,1,120.45,474.5Z" style="fill:#63316d"/><path d="M120.45,442.8a7.35,7.35,0,1,0,7.35,7.35A7.363,7.363,0,0,0,120.45,442.8Zm0,12a4.65,4.65,0,1,1,4.64-4.65A4.655,4.655,0,0,1,120.45,454.8Z" style="fill:#63316d"/></svg>
