<svg id="Capa_1" enable-background="new 0 0 512 512" height="512" viewBox="0 0 512 512" width="512" xmlns="http://www.w3.org/2000/svg"><g><g><path d="m344.029 504.5h-300.585c-9.741 0-17.638-7.897-17.638-17.638v-427.015c0-9.741 7.897-17.638 17.638-17.638h300.585c9.741 0 17.638 7.897 17.638 17.638v427.015c0 9.741-7.897 17.638-17.638 17.638z" fill="#c8effe"/><g><path d="m372.02 261.502h175.382v58.843h-175.382z" fill="#d83131" transform="matrix(0 1 -1 0 750.635 -168.787)"/><path d="m430.29 165.711v37.522h58.843v-37.522c0-5.2-4.215-9.415-9.415-9.415h-40.013c-5.2 0-9.415 4.215-9.415 9.415z" fill="#f47c7c"/><path d="m489.133 378.614h-58.843l24.61 49.307c2.344 4.696 7.278 4.696 9.622 0z" fill="#f9c6c6"/><path d="m372.02 261.502h175.382v58.843h-175.382z" fill="#d83131" transform="matrix(0 1 -1 0 750.635 -168.787)"/><path d="m430.29 165.711v37.522h58.843v-37.522c0-5.2-4.215-9.415-9.415-9.415h-40.013c-5.2 0-9.415 4.215-9.415 9.415z" fill="#f47c7c"/><path d="m489.133 378.614h-58.843l24.61 49.307c2.344 4.696 7.278 4.696 9.622 0z" fill="#f9c6c6"/><path d="m460.786 203.233h28.346v175.382h-28.346z" fill="#ca2c2c"/><path d="m479.718 156.296h-28.346c5.2 0 9.415 4.215 9.415 9.415v37.522h28.346v-37.523c-.001-5.199-4.216-9.414-9.415-9.414z" fill="#ee6161"/><path d="m460.787 378.614-15.248 30.55 9.362 18.757c2.344 4.696 7.278 4.696 9.622 0l24.61-49.307z" fill="#f9b1b1"/></g><path d="m378.575 7.5h-300.585c-9.741 0-17.638 7.897-17.638 17.638v17.071h283.514c9.741 0 17.638 7.897 17.638 17.638v409.944h17.071c9.741 0 17.638-7.897 17.638-17.638v-427.015c0-9.741-7.897-17.638-17.638-17.638z" fill="#3c87d0"/><path d="m115.051 464.258h-41.333c-4.418 0-8-3.582-8-8v-41.333c0-4.418 3.582-8 8-8h41.333c4.418 0 8 3.582 8 8v41.333c0 4.418-3.581 8-8 8z" fill="#7ca1b1"/><path d="m208.678 235.411h-132.96c-5.523 0-10-4.477-10-10v-132.96c0-5.523 4.477-10 10-10h132.96c5.523 0 10 4.477 10 10v132.96c0 5.523-4.477 10-10 10z" fill="#fee2ca"/><circle cx="142.198" cy="136.236" fill="#ffcebf" r="26.769"/><path d="m113.006 208.395h58.384v-16.198c0-16.122-13.07-29.192-29.192-29.192-16.122 0-29.192 13.07-29.192 29.192z" fill="#e94444"/><path d="m344.029 42.209h-31.284c9.741 0 17.638 7.897 17.638 17.638v427.015c0 9.741-7.897 17.638-17.638 17.638h31.284c9.741 0 17.638-7.897 17.638-17.638v-427.015c0-9.741-7.897-17.638-17.638-17.638z" fill="#b3dafe"/></g><g><path d="m378.575 0h-300.585c-13.862 0-25.138 11.277-25.138 25.139v9.57h-12.346c-13.861 0-25.138 11.277-25.138 25.139v321.316c0 4.143 3.358 7.5 7.5 7.5s7.5-3.357 7.5-7.5v-321.316c0-5.591 4.548-10.139 10.138-10.139h300.585c5.59 0 10.138 4.548 10.138 10.139v427.014c0 5.591-4.548 10.139-10.138 10.139h-300.585c-5.59 0-10.138-4.548-10.138-10.139v-70.697c0-4.143-3.358-7.5-7.5-7.5s-7.5 3.357-7.5 7.5v70.697c0 13.861 11.277 25.139 25.138 25.139h300.585c13.861 0 25.138-11.277 25.138-25.139v-9.57h12.345c13.861 0 25.138-11.277 25.138-25.139v-331.664c0-4.143-3.358-7.5-7.5-7.5s-7.5 3.357-7.5 7.5v331.663c0 5.591-4.548 10.139-10.138 10.139h-9.571v-402.443c0-13.861-11.277-25.139-25.138-25.139-4.13 0-274.112 0-276.014 0v-9.57c.001-5.591 4.548-10.139 10.139-10.139h300.585c5.59 0 10.138 4.548 10.138 10.139v60.351c0 4.143 3.358 7.5 7.5 7.5s7.5-3.357 7.5-7.5v-60.351c0-13.862-11.277-25.139-25.138-25.139z"/><path d="m479.717 148.796h-40.013c-9.327 0-16.915 7.588-16.915 16.915v212.903c0 .145.014.286.022.429.004.078.005.156.012.234.053.6.178 1.178.363 1.729.02.058.043.116.064.174.084.23.179.455.284.675.017.035.028.073.046.108l24.61 49.306c2.398 4.805 6.705 7.674 11.522 7.674s9.124-2.869 11.521-7.673l24.61-49.307c.022-.043.035-.089.056-.132.097-.203.184-.411.263-.624.027-.073.055-.144.079-.217.086-.257.161-.52.219-.789.004-.019.011-.037.015-.056.058-.278.097-.563.123-.852.009-.098.01-.196.015-.294.007-.128.019-.255.019-.385 0-7.78 0-202.277 0-212.903 0-9.327-7.588-16.915-16.915-16.915zm-20.006 271.97-17.295-34.651h34.591zm21.921-49.652h-43.842v-160.382h43.842zm0-175.382h-43.842v-30.021c0-1.056.859-1.915 1.915-1.915h40.013c1.056 0 1.915.859 1.915 1.915v30.021z"/><path d="m58.218 456.258c0 8.547 6.953 15.5 15.5 15.5h41.333c8.547 0 15.5-6.953 15.5-15.5v-39.496l17.111-18.203c2.837-3.018 2.69-7.765-.328-10.602s-7.764-2.69-10.602.328l-12.987 13.816c-2.481-1.688-5.474-2.676-8.694-2.676h-41.333c-8.547 0-15.5 6.953-15.5 15.5zm57.333-23.539v23.539c0 .275-.224.5-.5.5h-22.227c.295-.231.58-.479.841-.756zm-42.333-17.794c0-.275.224-.5.5-.5h38.443l-22.91 24.372-13.441-20.483c-.681-1.038-1.579-1.847-2.591-2.416v-.973zm0 26.782c9.497 14.472 9.039 14.02 10.351 15.051h-9.851c-.276 0-.5-.225-.5-.5z"/><path d="m315.625 428.091h-159.333c-4.142 0-7.5 3.357-7.5 7.5s3.358 7.5 7.5 7.5h159.333c4.142 0 7.5-3.357 7.5-7.5s-3.358-7.5-7.5-7.5z"/><path d="m75.718 242.911h132.959c9.649 0 17.5-7.851 17.5-17.5v-132.96c0-9.649-7.851-17.5-17.5-17.5h-132.959c-9.649 0-17.5 7.851-17.5 17.5v132.96c0 9.65 7.851 17.5 17.5 17.5zm-2.5-150.46c0-1.379 1.122-2.5 2.5-2.5h132.959c1.378 0 2.5 1.121 2.5 2.5v132.96c0 1.379-1.122 2.5-2.5 2.5h-132.959c-1.378 0-2.5-1.121-2.5-2.5z"/><path d="m113 215.89c4.14 0 7.51-3.36 7.51-7.49v-16.2c.02-11.909 9.699-21.627 21.596-21.698.031 0 .061.002.092.002.032 0 .063-.002.094-.002 11.898.07 21.578 9.788 21.598 21.698v8.699h-15.89c-4.13 0-7.5 3.36-7.5 7.5 0 4.13 3.37 7.5 7.5 7.5.01 0 .02 0 .02-.01h23.37c1.97 0 3.91-.8 5.3-2.189 1.4-1.4 2.2-3.33 2.2-5.301v-16.199c0-9.811-3.82-19.021-10.75-25.95-1.307-1.307-2.695-2.503-4.153-3.583 7.617-6.291 12.48-15.803 12.48-26.43 0-18.896-15.373-34.27-34.269-34.27s-34.269 15.373-34.269 34.27c0 10.626 4.862 20.138 12.478 26.429-1.459 1.081-2.849 2.277-4.157 3.585-6.93 6.93-10.74 16.14-10.74 25.95v16.199c0 1.971.8 3.9 2.19 5.301 1.4 1.389 3.33 2.189 5.3 2.189zm29.198-98.923c10.625 0 19.269 8.645 19.269 19.27 0 10.603-8.609 19.229-19.204 19.265-.021 0-.042-.001-.063-.001-.022 0-.044.001-.066.002-10.595-.035-19.205-8.662-19.205-19.265 0-10.627 8.644-19.271 19.269-19.271z"/><path d="m249.337 126.567h66.288c4.142 0 7.5-3.357 7.5-7.5s-3.358-7.5-7.5-7.5h-66.288c-4.142 0-7.5 3.357-7.5 7.5s3.358 7.5 7.5 7.5z"/><path d="m249.337 169.088h66.288c4.142 0 7.5-3.357 7.5-7.5s-3.358-7.5-7.5-7.5h-66.288c-4.142 0-7.5 3.357-7.5 7.5s3.358 7.5 7.5 7.5z"/><path d="m249.337 214.441h66.288c4.142 0 7.5-3.357 7.5-7.5s-3.358-7.5-7.5-7.5h-66.288c-4.142 0-7.5 3.357-7.5 7.5s3.358 7.5 7.5 7.5z"/><path d="m65.718 286.865h249.907c4.142 0 7.5-3.357 7.5-7.5s-3.358-7.5-7.5-7.5h-249.907c-4.142 0-7.5 3.357-7.5 7.5s3.358 7.5 7.5 7.5z"/><path d="m65.718 329.385h249.907c4.142 0 7.5-3.357 7.5-7.5s-3.358-7.5-7.5-7.5h-249.907c-4.142 0-7.5 3.357-7.5 7.5s3.358 7.5 7.5 7.5z"/><path d="m65.718 371.905h249.907c4.142 0 7.5-3.357 7.5-7.5s-3.358-7.5-7.5-7.5h-249.907c-4.142 0-7.5 3.357-7.5 7.5s3.358 7.5 7.5 7.5z"/></g></g></svg>