<?xml version="1.0" encoding="iso-8859-1"?>
<!-- Generator: Adobe Illustrator 19.0.0, SVG Export Plug-In . SVG Version: 6.00 Build 0)  -->
<svg version="1.1" id="Capa_1" xmlns="http://www.w3.org/2000/svg" xmlns:xlink="http://www.w3.org/1999/xlink" x="0px" y="0px"
	 viewBox="0 0 480 480" style="enable-background:new 0 0 480 480;" xml:space="preserve">
<path style="fill:#65CECC;" d="M304,40v32H176V40H64v432h352V40H304z"/>
<path style="fill:#816892;" d="M176,8h128v64H176V8z"/>
<path style="fill:#E9CD4B;" d="M96,240h48v104H96V240z"/>
<path style="fill:#F0B77D;" d="M176,208h48v136h-48V208z"/>
<path style="fill:#00BA54;" d="M256,176h48v168h-48V176z"/>
<path style="fill:#DE2F55;" d="M336,144h48v200h-48V144z"/>
<path d="M416,32H312V8c0.001-4.417-3.579-7.999-7.996-8c-0.001,0-0.003,0-0.004,0H176c-4.417-0.001-7.999,3.579-8,7.996
	c0,0.001,0,0.003,0,0.004v24H64c-4.417-0.001-7.999,3.579-8,7.996c0,0.001,0,0.003,0,0.004v432c-0.001,4.417,3.579,7.999,7.996,8
	c0.001,0,0.003,0,0.004,0h352c4.417,0.001,7.999-3.579,8-7.996c0-0.001,0-0.003,0-0.004V40c0.001-4.417-3.579-7.999-7.996-8
	C416.003,32,416.001,32,416,32z M184,16h112v48H184V16z M408,464H72V48h96v24c-0.001,4.417,3.579,7.999,7.996,8
	c0.001,0,0.003,0,0.004,0h128c4.417,0.001,7.999-3.579,8-7.996c0-0.001,0-0.003,0-0.004V48h96V464z"/>
<path d="M88,368h176v16H88V368z"/>
<path d="M280,368h112v16H280V368z"/>
<path d="M88,400h304v16H88V400z"/>
<path d="M88,432h128v16H88V432z"/>
<path d="M232,432h160v16H232V432z"/>
<path d="M144,352H96c-4.417,0.001-7.999-3.579-8-7.996c0-0.001,0-0.003,0-0.004V240c-0.001-4.417,3.579-7.999,7.996-8
	c0.001,0,0.003,0,0.004,0h48c4.417-0.001,7.999,3.579,8,7.996c0,0.001,0,0.003,0,0.004v104c0.001,4.417-3.579,7.999-7.996,8
	C144.003,352,144.001,352,144,352z M104,336h32v-88h-32V336z"/>
<path d="M224,352h-48c-4.417,0.001-7.999-3.579-8-7.996c0-0.001,0-0.003,0-0.004V208c-0.001-4.417,3.579-7.999,7.996-8
	c0.001,0,0.003,0,0.004,0h48c4.417-0.001,7.999,3.579,8,7.996c0,0.001,0,0.003,0,0.004v136c0.001,4.417-3.579,7.999-7.996,8
	C224.003,352,224.001,352,224,352z M184,336h32V216h-32V336z"/>
<path d="M304,352h-48c-4.417,0.001-7.999-3.579-8-7.996c0-0.001,0-0.003,0-0.004V176c-0.001-4.417,3.579-7.999,7.996-8
	c0.001,0,0.003,0,0.004,0h48c4.417-0.001,7.999,3.579,8,7.996c0,0.001,0,0.003,0,0.004v168c0.001,4.417-3.579,7.999-7.996,8
	C304.003,352,304.001,352,304,352z M264,336h32V184h-32V336z"/>
<path d="M384,352h-48c-4.417,0.001-7.999-3.579-8-7.996c0-0.001,0-0.003,0-0.004V144c-0.001-4.417,3.579-7.999,7.996-8
	c0.001,0,0.003,0,0.004,0h48c4.417-0.001,7.999,3.579,8,7.996c0,0.001,0,0.003,0,0.004v200c0.001,4.417-3.579,7.999-7.996,8
	C384.003,352,384.001,352,384,352z M344,336h32V152h-32V336z"/>
<path d="M100.238,198.781l-8.477-13.563l64-40c1.27-0.797,2.739-1.219,4.238-1.219h69.578l69.984-46.656
	c0.869-0.579,1.843-0.982,2.867-1.188l80-16l3.141,15.688l-78.449,15.688l-70.683,47.124c-1.314,0.876-2.858,1.343-4.438,1.344
	h-69.707L100.238,198.781z"/>
<g>
</g>
<g>
</g>
<g>
</g>
<g>
</g>
<g>
</g>
<g>
</g>
<g>
</g>
<g>
</g>
<g>
</g>
<g>
</g>
<g>
</g>
<g>
</g>
<g>
</g>
<g>
</g>
<g>
</g>
</svg>
