<svg id="Layer_5" enable-background="new 0 0 64 64" height="512" viewBox="0 0 64 64" width="512" xmlns="http://www.w3.org/2000/svg"><g><g><g><path d="m17 62h-9v-9-1l.93-.46c.6-.3.99-.88 1.06-1.54h.01 16v12z" fill="#969faa"/></g><g><path d="m24 12h-3.53c-2.94 0-5.84-.68-8.47-2-1.23.61-2 1.87-2 3.24v.76h-1c-.93 0-1.76.42-2.31 1.08l-.42-1.28c-.18-.53-.27-1.09-.27-1.64 0-1.38.55-2.71 1.52-3.68l.48-.48c0-1.66.67-3.16 1.76-4.24 1.08-1.09 2.58-1.76 4.24-1.76h6.51c1.93 0 3.49 1.56 3.49 3.49 0 .17-.01.33-.03.49l.79.4c1.99.99 3.24 3.02 3.24 5.24 0 .91-.21 1.8-.62 2.62l-.3.6c-.54-.52-1.27-.84-2.08-.84h-1z" fill="#b27946"/></g><g><path d="m18.35 33.11 1.65 9.89-3 3-3-3 1.65-9.92 1.35-1.08 1.36 1.09z" fill="#e6e9ed"/></g><g><path d="m22.55 29.21c1.01.14 2.23.38 3.45.79 3 1 6 4 6 4l8-8 4 4-8.25 8.25c-1.12 1.12-2.64 1.75-4.23 1.75-1 0-1.98-.25-2.86-.73l-2.66-1.45v12.18h-16-.01c.01-.06.01-.13.01-.2 0-.51-.2-1-.57-1.37l-1.43-1.43h-6v-9.91c0-1.98.79-3.88 2.19-5.28 1.17-1.17 2.7-1.92 4.35-2.13l2.83-.35c.54-.06 1.03-.27 1.44-.58l-.81 7.25 3.65-2.92-1.65 9.92 3 3 3-3-1.65-9.89.01-.02 3.64 2.91-.82-7.36v-.01c.39.3.86.5 1.37.58z" fill="#4fc1e9"/></g><g><path d="m21.18 28.64.82 7.36-3.64-2.91-1.36-1.09 3.17-4.76c.19.55.54 1.04 1.01 1.39z" fill="#3bafda"/></g><g><path d="m13.85 27.28 3.15 4.72-1.35 1.08-3.65 2.92.81-7.25c.48-.38.85-.88 1.04-1.47z" fill="#3bafda"/></g><g><path d="m48 54v4c0 1.1-.9 2-2 2h-12c-1.1 0-2-.9-2-2v-4c0-1.1.9-2 2-2h5l3.59-3.59c.26-.26.62-.41 1-.41.78 0 1.41.63 1.41 1.41v2.59h1c1.1 0 2 .9 2 2z" fill="#e6e9ed"/></g><g><path d="m62 36v4c0 1.1-.9 2-2 2h-5l-3.59 3.59c-.26.26-.62.41-1 .41-.78 0-1.41-.63-1.41-1.41v-2.59h-1c-1.1 0-2-.9-2-2v-4c0-1.1.9-2 2-2h12c1.1 0 2 .9 2 2z" fill="#e6e9ed"/></g><g><path d="m51 21c0 1.66-1.34 3-3 3l-.2-.39c-.49-.99-1.5-1.61-2.6-1.61l-.2.01v-.01-2h6z" fill="#aab2bd"/></g><g><path d="m51 20h-6v-.75c0-1-.46-1.97-1.3-2.51-2.5-1.59-4.05-4.53-3.63-7.79.45-3.59 3.4-6.49 7-6.9 4.83-.54 8.93 3.22 8.93 7.95 0 2.83-1.47 5.31-3.68 6.73-.84.54-1.32 1.48-1.32 2.48z" fill="#ffeaa7"/></g><g><path d="m10 49.8c0 .07 0 .14-.01.2-.07.66-.46 1.24-1.06 1.54l-.93.46v1c0 1.1-.9 2-2 2h-2c-1.1 0-2-.9-2-2v-6h6l1.43 1.43c.37.37.57.86.57 1.37z" fill="#f0d0b4"/></g><g><path d="m47.8 23.61.2.39h1c1.1 0 2 .9 2 2v2c0 1.1-.9 2-2 2h-5l-4-4 3.15-3.15c.49-.49 1.15-.79 1.85-.84l.2-.01c1.1 0 2.11.62 2.6 1.61z" fill="#f0d0b4"/></g><g><path d="m14 26.35v-2.02-.01c.91.44 1.93.68 3 .68 1.08 0 2.09-.24 3-.68v1.93c0 .34.06.68.17.99l-3.17 4.76-3.15-4.72c.1-.29.15-.61.15-.93z" fill="#f0d0b4"/></g><g><path d="m27.08 14.84c.57.54.92 1.31.92 2.16 0 .83-.34 1.58-.88 2.12s-1.29.88-2.12.88h-1.29c.19-.63.29-1.3.29-2v-4h1c.81 0 1.54.32 2.08.84z" fill="#f0d0b4"/></g><g><path d="m10.29 20h-1.29c-.83 0-1.58-.34-2.12-.88s-.88-1.29-.88-2.12c0-.73.26-1.4.69-1.92.55-.66 1.38-1.08 2.31-1.08h1v4c0 .7.1 1.37.29 2z" fill="#f0d0b4"/></g><g><path d="m24 14v4c0 .7-.1 1.37-.29 2-.33 1.13-.95 2.14-1.76 2.95-.56.56-1.22 1.03-1.95 1.37-.91.44-1.92.68-3 .68-1.07 0-2.09-.24-3-.68-1.78-.84-3.14-2.41-3.71-4.32-.19-.63-.29-1.3-.29-2v-4-.76c0-1.37.77-2.63 2-3.24 2.63 1.32 5.53 2 8.47 2h3.53z" fill="#f0d0b4"/></g></g><g><path d="m31.524 41c1.864 0 3.616-.726 4.934-2.044l7.956-7.956h4.586c1.654 0 3-1.346 3-3v-2c0-.92-.425-1.735-1.08-2.286.665-.714 1.08-1.664 1.08-2.714v-1.791c0-.68.322-1.293.862-1.64 2.591-1.666 4.138-4.496 4.138-7.569 0-2.561-1.096-5.008-3.006-6.714-1.909-1.706-4.477-2.516-7.039-2.228-4.051.458-7.365 3.723-7.88 7.763-.447 3.51 1.118 6.867 4.084 8.762.518.331.84.97.84 1.667v1.957c-.579.188-1.115.494-1.558.938l-2.441 2.441-8.026 8.025c-1.117-.991-3.355-2.792-5.658-3.559-1.107-.37-2.329-.649-3.63-.832-.961-.136-1.686-.985-1.686-1.975v-1.328c1.529-.888 2.739-2.264 3.411-3.918h.589c2.206 0 4-1.794 4-4 0-.855-.275-1.645-.734-2.296l.01-.021c.474-.946.724-2.005.724-3.064 0-2.612-1.452-4.961-3.789-6.131l-.222-.111c-.061-2.422-2.04-4.376-4.476-4.376h-6.513c-3.716 0-6.766 2.911-6.987 6.573l-.196.196c-1.171 1.172-1.817 2.73-1.817 4.386 0 .668.107 1.328.318 1.962l.273.819c-.367.604-.591 1.306-.591 2.064 0 2.206 1.794 4 4 4h.589c.672 1.654 1.882 3.03 3.411 3.918v1.434c0 1.007-.753 1.859-1.752 1.984l-2.829.354c-1.859.232-3.613 1.091-4.938 2.416-1.6 1.599-2.481 3.725-2.481 5.988v15.906c0 1.654 1.346 3 3 3h2c.352 0 .686-.072 1-.184v7.184h20v-23.497l1.184.646c1.022.557 2.176.851 3.34.851zm18.476-20c0 .908-.613 1.669-1.444 1.912-.565-.952-1.49-1.603-2.556-1.822v-.09zm-8.94-11.926c.4-3.137 2.974-5.672 6.12-6.027 2.026-.236 3.975.385 5.481 1.73 1.486 1.328 2.339 3.232 2.339 5.223 0 2.39-1.204 4.591-3.22 5.888-1.057.679-1.703 1.833-1.768 3.112h-4.028c-.074-1.291-.711-2.439-1.749-3.103-2.307-1.474-3.524-4.088-3.175-6.823zm2.796 14.485c.355-.355.846-.559 1.348-.559.727 0 1.38.403 1.705 1.054l.473.946h1.618c.551 0 1 .448 1 1v2c0 .552-.449 1-1 1h-4.586l-3-3zm-23.117 10.152-2.398-1.919 1.827-2.742c.02.02.04.039.06.058zm-1.81 8.946-1.929 1.929-1.929-1.929 1.506-9.038.423-.338.423.338zm-5.17-13.434c.038-.037.078-.071.115-.109l1.785 2.678-2.398 1.919zm11.241-10.223h-.069c.041-.328.069-.661.069-1v-3c1.103 0 2 .897 2 2s-.897 2-2 2zm-16 0c-1.103 0-2-.897-2-2s.897-2 2-2v3c0 .339.028.672.069 1zm.016-6h-.016c-.648 0-1.252.17-1.794.444-.135-.417-.206-.85-.206-1.289 0-1.122.438-2.178 1.231-2.973l.769-.768v-.414c0-2.757 2.243-5 5-5h6.513c1.371 0 2.487 1.116 2.487 2.487 0 1.072-.684 2.02-1.7 2.358l-.616.205.632 1.898.616-.206c1.184-.395 2.111-1.25 2.625-2.325 1.509.866 2.443 2.445 2.443 4.201 0 .6-.118 1.197-.335 1.756-.508-.234-1.069-.374-1.665-.374v-2h-4.528c-2.772 0-5.547-.655-8.025-1.895l-.447-.223-.447.224c-1.503.752-2.453 2.231-2.537 3.894zm1.984 5v-4.764c0-.842.395-1.611 1.054-2.101 2.625 1.222 5.523 1.865 8.418 1.865h2.528v5c0 3.309-2.691 6-6 6s-6-2.691-6-6zm6 8c.692 0 1.359-.097 2-.263v.508c0 .279.036.55.091.815l-2.091 3.137-2.069-3.104c.045-.241.069-.489.069-.741v-.615c.641.166 1.308.263 2 .263zm-12.105 6.52c1.012-1.013 2.352-1.668 3.772-1.846l2.829-.354c.046-.006.087-.022.132-.029l-.889 7.998 3.499-2.799-1.309 7.853 4.071 4.071 4.071-4.071-1.309-7.853 3.499 2.799-.9-8.1c.016.003.031.009.048.011 1.181.166 2.283.417 3.275.748 2.04.68 4.139 2.419 5.088 3.272l-.666 1.333 1.789.895.927-1.855 7.178-7.179 2.586 2.586-7.542 7.542c-.94.94-2.19 1.458-3.52 1.458-.83 0-1.654-.21-2.383-.607l-2.124-1.158c.043-.576.277-1.114.69-1.527l-1.415-1.414c-.833.833-1.292 1.941-1.292 3.12v11.586h-14.127c-.137-.476-.38-.921-.733-1.274l-1.14-1.14v-9.172c0-1.179-.459-2.287-1.292-3.121l-1.415 1.414c.456.456.707 1.063.707 1.707v8.586h-4v-8.906c0-1.703.691-3.37 1.895-4.574zm1.105 21.48h-2c-.551 0-1-.448-1-1v-5h4.586l1.14 1.14c.174.174.274.416.274.663 0 .357-.199.679-.518.838l-1.482.741v.618 1c0 .552-.449 1-1 1zm12 7v-2.838c0-1.46.931-2.751 2.316-3.214l-.633-1.896c-1.112.371-2.037 1.078-2.684 1.985-.646-.907-1.572-1.615-2.684-1.985l-.633 1.896c1.387.463 2.318 1.754 2.318 3.214v2.838h-7v-8-.382l.376-.188c.624-.312 1.1-.82 1.371-1.43h14.253v10z"/><path d="m52.707 7.707-1.414-1.414-5.293 5.293-1.293-1.293-1.414 1.414 2.707 2.707z"/><path d="m46 51v-1.586c0-1.331-1.083-2.414-2.414-2.414-.635 0-1.257.258-1.707.707l-3.293 3.293h-4.586c-1.654 0-3 1.346-3 3v4c0 1.654 1.346 3 3 3h12c1.654 0 3-1.346 3-3v-4c0-1.654-1.346-3-3-3zm1 7c0 .552-.449 1-1 1h-12c-.551 0-1-.448-1-1v-4c0-.552.449-1 1-1h5.414l3.878-3.878c.241-.241.708-.045.708.292v3.586h2c.551 0 1 .448 1 1z"/><path d="m35 55h10v2h-10z"/><path d="m60 33h-12c-1.654 0-3 1.346-3 3v4c0 1.654 1.346 3 3 3v1.586c0 1.331 1.083 2.414 2.414 2.414.635 0 1.257-.258 1.707-.707l3.293-3.293h4.586c1.654 0 3-1.346 3-3v-4c0-1.654-1.346-3-3-3zm1 7c0 .552-.449 1-1 1h-5.414l-3.878 3.878c-.241.241-.708.045-.708-.292v-3.586h-2c-.551 0-1-.448-1-1v-4c0-.552.449-1 1-1h12c.551 0 1 .448 1 1z"/><path d="m49 37h10v2h-10z"/></g></g></svg>