<svg id="Capa_1" enable-background="new 0 0 512.286 512.286" height="512" viewBox="0 0 512.286 512.286" width="512" xmlns="http://www.w3.org/2000/svg"><g><g><path d="m393.485 151.604v215.836c0 22.091-70.096 42.553-65.67 88.117h-249.33c-22.091 0-40-17.909-40-40v-368c0-22.091 17.909-40 40-40h171.197c7.968 0 15.608 3.17 21.236 8.809l113.804 114.047c5.611 5.624 8.763 13.245 8.763 21.191z" fill="#f9f8f9"/><path d="m108.485 455.557h-30c-22.09 0-40-17.91-40-40v-368c0-22.09 17.91-40 40-40h30c-22.09 0-40 17.91-40 40v368c0 22.09 17.91 40 40 40z" fill="#e3e0e4"/><g fill="#a29aa5"><path d="m219.593 157.557h-123.7c-4.142 0-7.5-3.358-7.5-7.5s3.358-7.5 7.5-7.5h123.7c4.142 0 7.5 3.358 7.5 7.5s-3.358 7.5-7.5 7.5z"/><path d="m219.593 337.557h-123.7c-4.142 0-7.5-3.358-7.5-7.5s3.358-7.5 7.5-7.5h123.7c4.142 0 7.5 3.358 7.5 7.5s-3.358 7.5-7.5 7.5z"/><path d="m317.893 217.557h-224c-4.142 0-7.5-3.358-7.5-7.5s3.358-7.5 7.5-7.5h224c4.142 0 7.5 3.358 7.5 7.5s-3.358 7.5-7.5 7.5z"/></g><path d="m393.485 151.607v17.59h-104.32c-31.45 0-57.04-25.62-57.04-57.1v-104.54h17.56c7.96 0 15.6 3.17 21.23 8.81l113.81 114.05c5.61 5.62 8.76 13.24 8.76 21.19z" fill="#e3e0e4"/><path d="m390.795 139.197h-101.63c-14.93 0-27.04-12.14-27.04-27.1v-101.82c3.24 1.46 6.23 3.52 8.79 6.09l113.81 114.05c2.55 2.56 4.61 5.54 6.07 8.78z" fill="#a29aa5"/><path d="m267.893 277.557h-174c-4.142 0-7.5-3.357-7.5-7.5s3.358-7.5 7.5-7.5h174c4.142 0 7.5 3.357 7.5 7.5s-3.358 7.5-7.5 7.5z" fill="#a29aa5"/><path d="m419.245 491.419-61.132-77.512 25.532-24.851 76.93 60.994c17.674 13.241 16.241 30.639 2.76 44.132-13.48 13.494-30.862 14.929-44.09-2.763z" fill="#faf063"/><path d="m412.965 412.307-31.4 31.33-23.45-29.73 25.53-24.85z" fill="#f3d332"/><path d="m419.739 363.162-86.975 86.792-74.661-74.57 86.975-86.792z" fill="#faf063"/><path d="m336.185 469.324-.006.006c-7.395 7.38-18.182 8.584-24.098 2.689l-76.115-75.978c-5.919-5.898-4.72-16.669 2.679-24.053l.006-.006c7.395-7.38 18.182-8.584 24.098-2.689l76.115 75.978c5.92 5.898 4.72 16.669-2.679 24.053z" fill="#f3d332"/><path d="m438.877 366.535.006-.006c7.373-7.402 8.576-18.199 2.687-24.121l-75.906-76.187c-5.892-5.925-16.653-4.724-24.03 2.682l-.006.006c-7.373 7.402-8.576 18.199-2.687 24.121l75.906 76.187c5.892 5.925 16.653 4.724 24.03-2.682z" fill="#f3d332"/></g><g><path d="m38.643 82.835c4.143 0 7.5-3.357 7.5-7.5v-27.825c0-17.926 14.567-32.51 32.471-32.51h171.072c1.684 0 3.333.203 4.937.562v96.499c0 19.084 15.486 34.609 34.522 34.609h96.188c.353 1.596.553 3.236.553 4.91v40.966c0 4.143 3.357 7.5 7.5 7.5s7.5-3.357 7.5-7.5v-40.966c0-10.003-3.888-19.411-10.946-26.49l-113.721-114.074c-7.083-7.104-16.506-11.016-26.533-11.016h-171.072c-26.176 0-47.471 21.313-47.471 47.51v27.825c0 4.143 3.358 7.5 7.5 7.5zm336.675 48.835h-86.173c-10.765 0-19.522-8.797-19.522-19.609v-86.415z"/><path d="m122.814 448.102h-44.2c-17.904 0-32.471-14.583-32.471-32.509v-305.258c0-4.143-3.357-7.5-7.5-7.5s-7.5 3.357-7.5 7.5v305.258c0 26.196 21.295 47.509 47.471 47.509h44.2c4.143 0 7.5-3.357 7.5-7.5s-3.357-7.5-7.5-7.5z"/><path d="m96.009 157.532h123.611c4.143 0 7.5-3.357 7.5-7.5s-3.357-7.5-7.5-7.5h-123.611c-4.143 0-7.5 3.357-7.5 7.5s3.357 7.5 7.5 7.5z"/><path d="m96.009 322.573c-4.143 0-7.5 3.357-7.5 7.5s3.357 7.5 7.5 7.5h123.611c4.143 0 7.5-3.357 7.5-7.5s-3.357-7.5-7.5-7.5z"/><path d="m325.349 210.046c0-4.143-3.357-7.5-7.5-7.5h-223.838c-4.143 0-7.5 3.357-7.5 7.5s3.357 7.5 7.5 7.5h223.838c4.142 0 7.5-3.358 7.5-7.5z"/><path d="m275.385 270.06c0-4.143-3.357-7.5-7.5-7.5h-173.874c-4.143 0-7.5 3.357-7.5 7.5s3.357 7.5 7.5 7.5h173.874c4.142 0 7.5-3.358 7.5-7.5z"/><path d="m481.066 470.354c-.494-6.891-3.658-17.031-15.918-26.248l-64.717-51.081 14.654-14.623c9.753 4.592 21.337 1.217 29.111-6.58 10.266-10.306 11.472-25.873 2.687-34.708l-45.997-46.167v-63.401c0-4.143-3.357-7.5-7.5-7.5s-7.5 3.357-7.5 7.5v48.346l-14.903-14.958c-9.47-9.539-25.481-6.851-34.668 2.683-8.465 8.498-10.765 20.571-6.386 29.499l-67.232 67.09c-8.909-4.289-20.895-1.963-29.347 6.474-9.512 9.179-12.195 25.207-2.68 34.669l46.836 46.753h-119.692c-4.143 0-7.5 3.357-7.5 7.5s3.357 7.5 7.5 7.5h134.718l14.256 14.23c9.801 9.417 25.079 6.876 34.696-2.699 7.831-7.825 11.18-19.496 6.496-29.268l14.24-14.21 51.076 64.834c18.348 22.262 37.022 20.02 55.344 3.494 8.732-8.74 13.145-19.085 12.426-29.129zm-134.119-196.158c3.879-3.566 9.039-6.09 13.403-2.681l75.901 76.182c2.862 2.878 1.632 9.162-2.627 13.482-3.987 3.785-9.894 6.45-14.062 2.145l-28.117-28.222c-2.926-2.937-7.675-2.943-10.606-.021-2.935 2.924-2.943 7.673-.021 10.606l22.84 22.925c-19.703 19.64-45.801 45.701-65.498 65.359l-64.066-63.952 65.673-65.534 16.329 16.389c2.925 2.934 7.673 2.941 10.607.02 2.934-2.924 2.942-7.673.02-10.607l-21.63-21.709c-3.935-3.092-2.801-9.553 1.854-14.382zm-16.065 189.825c-4.313 4.302-10.624 5.556-13.501 2.69l-76.119-75.983c-3.401-4.374-.884-9.546 2.688-13.438 4.74-4.591 11.177-5.772 14.223-1.97l75.398 75.264c3.402 4.372.878 9.554-2.689 13.437zm127.147 24.861c-11.273 11.233-23.439 10.943-32.893-2.104l-52.224-66.292 16.827-16.792 66.188 52.243c13.037 9.465 13.341 21.673 2.102 32.945z"/></g></g></svg>