<?xml version="1.0" encoding="UTF-8"?>
<svg xmlns="http://www.w3.org/2000/svg" viewBox="0 0 512 512" width="512" height="512"><g id="Filled_outline" data-name="Filled outline"><path d="M336,352v80H176V352a48,48,0,0,1,48-48h64A48,48,0,0,1,336,352Z" style="fill:#f1ddc1"/><path d="M336,387.75V432H176V387.76a168.186,168.186,0,0,0,160-.01Z" style="fill:#e9d6bb"/><polygon points="280 408 256 432 232 408 248 336 232 304 280 304 264 336 280 408" style="fill:#426887"/><rect x="192" y="144" width="128" height="168" rx="64" ry="64" style="fill:#fdc8a2"/><path d="M192,208V184a32,32,0,0,1,32-32h0Z" style="fill:#3c6180"/><path d="M320,208l-32-32H216a24,24,0,0,1-24-24h0a24,24,0,0,1,24-24h56a48,48,0,0,1,48,48Z" style="fill:#426887"/><path d="M368,424V381.208A168,168,0,0,1,118.894,158.894L144,184V88H48l25.172,25.172A230.993,230.993,0,0,0,24,256c0,128.13,103.87,232,232,232a231.212,231.212,0,0,0,160-64Z" style="fill:#7a9e44"/><path d="M488,256C488,127.87,384.13,24,256,24A231.21,231.21,0,0,0,96,88h48v42.792A168,168,0,0,1,393.106,353.106L368,328v96h96l-25.172-25.172A230.993,230.993,0,0,0,488,256Z" style="fill:#348ed8"/><path d="M216,220a12,12,0,1,1,12,12A12.013,12.013,0,0,1,216,220Zm68,12a12,12,0,1,0-12-12A12.013,12.013,0,0,0,284,232Zm-56.525,30.6a48.865,48.865,0,0,0,57.05,0l-9.05-13.194c-12.377,8.491-26.573,8.491-38.95,0ZM256,480A224.158,224.158,0,0,1,44.414,182.28l-15.109-5.264a240.06,240.06,0,0,0,361.462,277.6l-9-13.232A222.816,222.816,0,0,1,256,480ZM425.705,86.294a240.4,240.4,0,0,1,62.5,230.591l-15.478-4.049A224.045,224.045,0,0,0,117.419,80H144a8,8,0,0,1,8,8v96a8,8,0,0,1-13.657,5.657L120.137,171.45A159.969,159.969,0,0,0,168,389.557V352a56.086,56.086,0,0,1,37.378-52.8A72.072,72.072,0,0,1,184,248V184a39.946,39.946,0,0,1,3.771-16.948,31.982,31.982,0,0,1,12.186-42.744l8.029,13.839A16,16,0,0,0,216,168h72a8,8,0,0,1,5.657,2.343L312,188.687V176a40.045,40.045,0,0,0-40-40H223V120h49a56.063,56.063,0,0,1,56,56v72A72.064,72.064,0,0,1,306.62,299.2,56.087,56.087,0,0,1,344,352v24H328V352a40.039,40.039,0,0,0-39.046-39.976q-2.556,1.32-5.238,2.443l-11.29,22.571,15.384,69.227a7.993,7.993,0,0,1-1.684,6.86,159.96,159.96,0,0,0,73.49-35.217l.384.451V328a8,8,0,0,1,13.657-5.657l18.206,18.207A158.891,158.891,0,0,0,416,256c0-88.225-71.775-160-160-160a159.583,159.583,0,0,0-83.813,23.692l-8.4-13.621A175.6,175.6,0,0,1,256,80c97.047,0,176,78.953,176,176a174.841,174.841,0,0,1-32.369,101.736,8,8,0,0,1-12.182,1.028L376,347.313V416h68.687l-11.516-11.515a8,8,0,0,1-.644-10.587,222.8,222.8,0,0,0,36.512-68.491l15.213,4.954a238.549,238.549,0,0,1-34.832,67.744l20.237,20.238A8,8,0,0,1,464,432H368a8,8,0,0,1-8-8V397.973A176.1,176.1,0,0,1,256,432c-97.047,0-176-78.953-176-176a174.841,174.841,0,0,1,32.369-101.736,8,8,0,0,1,12.182-1.028L136,164.687V96H67.313l11.516,11.515a8,8,0,0,1,.644,10.587,223.833,223.833,0,0,0-30.009,51.041l-14.746-6.21A239.707,239.707,0,0,1,62.581,113.9L42.343,93.657A8,8,0,0,1,48,80H92.856a239.969,239.969,0,0,1,332.849,6.294ZM271.238,405.448,256.19,337.735a8,8,0,0,1,.655-5.314l6.4-12.8c-2.4.24-4.813.374-7.244.374s-4.846-.134-7.244-.374l6.4,12.8a8,8,0,0,1,.655,5.314l-15.048,67.713,10.476,10.475c1.582.047,3.168.077,4.762.077s3.179-.033,4.766-.08ZM228.872,297.005a55.37,55.37,0,0,0,7.942,3.631,56.39,56.39,0,0,0,38.379,0,55.224,55.224,0,0,0,7.922-3.621A56.083,56.083,0,0,0,312,248V216c0-1.649-.078-3.288-.218-4.9L284.687,184H216c-.353,0-.7-.015-1.052-.027l-14.561,25.475A56.625,56.625,0,0,0,200,216v32A56.078,56.078,0,0,0,228.872,297.005ZM184,398.857a158.691,158.691,0,0,0,41.894,14.289,7.986,7.986,0,0,1-1.7-6.881l15.384-69.227-11.29-22.571q-2.676-1.119-5.238-2.443A40.039,40.039,0,0,0,184,352Z"/></g></svg>
