<svg height="512" viewBox="0 0 74 74" width="512" xmlns="http://www.w3.org/2000/svg"><g id="color_line" data-name="color line"><rect fill="#89c5cd" height="52.668" rx="3.715" width="68" x="2.585" y="6.165"/><path d="m2.585 47.9v7.216a3.715 3.715 0 0 0 3.715 3.718h60.57a3.715 3.715 0 0 0 3.715-3.715v-7.219z" fill="#e1e6e9"/><path d="m67.845 47.625h2.739v-37.745a3.715 3.715 0 0 0 -3.714-3.715h-60.57a3.7 3.7 0 0 0 -3.555 2.694 3.707 3.707 0 0 1 .815-.1h60.571a3.715 3.715 0 0 1 3.715 3.715z" fill="#80b8bc"/><path d="m27.164 58.834h18.842v7.092h-18.842z" fill="#ebf0f3"/><path d="m46.006 66.425h-18.842a.5.5 0 0 1 -.5-.5v-7.092a.5.5 0 0 1 .5-.5h18.842a.5.5 0 0 1 .5.5v7.092a.5.5 0 0 1 -.5.5zm-18.342-1h17.842v-6.092h-17.842z" fill="#323c6b"/><path d="m26.886 65.925h19.4a4.7 4.7 0 0 1 4.7 4.7v.4a0 0 0 0 1 0 0h-28.798a0 0 0 0 1 0 0v-.4a4.7 4.7 0 0 1 4.698-4.7z" fill="#e1e6e9"/><path d="m50.981 71.527h-28.793a.5.5 0 0 1 -.5-.5v-.4a5.2 5.2 0 0 1 5.2-5.2h19.4a5.2 5.2 0 0 1 5.2 5.2v.4a.5.5 0 0 1 -.507.5zm-28.292-1h27.791a4.2 4.2 0 0 0 -4.2-4.1h-19.4a4.2 4.2 0 0 0 -4.191 4.1z" fill="#323c6b"/><circle cx="36.585" cy="53.368" fill="#323c6b" r="1.739"/><circle cx="18.579" cy="21.792" fill="#e1e6e9" r="5.15"/><path d="m14.429 29.624h8.3a5.266 5.266 0 0 1 5.266 5.266v2.946a0 0 0 0 1 0 0h-18.831a0 0 0 0 1 0 0v-2.947a5.266 5.266 0 0 1 5.265-5.265z" fill="#e1e6e9"/><path d="m18.579 16.642a5.139 5.139 0 0 0 -4.306 2.336 5.137 5.137 0 0 1 7.027 7.169 5.14 5.14 0 0 0 -2.723-9.505z" fill="#d5d6db"/><path d="m22.729 29.624h-2.375a5.266 5.266 0 0 1 5.266 5.266v2.946h2.375v-2.947a5.266 5.266 0 0 0 -5.266-5.265z" fill="#d5d6db"/><path d="m38.871 18.328h13.255v10.225h-13.255z" fill="#fcd462" transform="matrix(.707 -.707 .707 .707 -3.249 39.038)"/><path d="m44.428 32.242a.5.5 0 0 1 -.354-.146l-7.23-7.23a.5.5 0 0 1 0-.707l9.373-9.373a.515.515 0 0 1 .707 0l7.229 7.23a.5.5 0 0 1 0 .707l-9.372 9.377a.5.5 0 0 1 -.353.142zm-6.528-7.73 6.523 6.523 8.665-8.666-6.518-6.523z" fill="#323c6b"/><path d="m63.244 37.292-12.774-11.592-2.712 2.712 11.592 12.773a2.756 2.756 0 0 0 3.99.1 2.756 2.756 0 0 0 -.096-3.993z" fill="#f7be56"/><path d="m61.394 42.589h-.082a3.228 3.228 0 0 1 -2.332-1.067l-11.592-12.774a.5.5 0 0 1 .017-.689l2.712-2.712a.5.5 0 0 1 .689-.017l12.774 11.592a3.256 3.256 0 0 1 -2.187 5.667zm-12.946-14.161 11.272 12.422a2.257 2.257 0 1 0 3.188-3.187l-12.422-11.273z" fill="#323c6b"/><rect fill="#f7be56" height="13.288" rx=".958" transform="matrix(.707 -.707 .707 .707 2.77 41.534)" width="3.771" x="49.635" y="10.779"/><path d="m54.885 23.557a1.452 1.452 0 0 1 -1.03-.426l-8.041-8.042a1.453 1.453 0 0 1 0-2.062l1.312-1.312a1.461 1.461 0 0 1 2.062 0l8.042 8.042a1.459 1.459 0 0 1 0 2.062l-1.312 1.313a1.455 1.455 0 0 1 -1.033.425zm-6.73-11.268a.454.454 0 0 0 -.323.134l-1.312 1.313a.453.453 0 0 0 0 .646l8.041 8.042a.459.459 0 0 0 .647 0l1.313-1.312a.463.463 0 0 0 0-.647l-8.042-8.042a.457.457 0 0 0 -.324-.134z" fill="#323c6b"/><rect fill="#f7be56" height="13.288" rx=".958" transform="matrix(.707 -.707 .707 .707 -9.269 36.547)" width="3.771" x="37.596" y="22.818"/><g fill="#323c6b"><path d="m42.847 35.6a1.453 1.453 0 0 1 -1.031-.426l-8.042-8.042a1.461 1.461 0 0 1 0-2.061l1.313-1.312a1.46 1.46 0 0 1 2.062 0l8.04 8.041a1.461 1.461 0 0 1 0 2.061l-1.312 1.309a1.452 1.452 0 0 1 -1.03.43zm-6.73-11.274a.456.456 0 0 0 -.324.136l-1.313 1.312a.454.454 0 0 0 0 .647l8.042 8.042a.458.458 0 0 0 .647 0l1.313-1.312a.459.459 0 0 0 0-.647l-8.042-8.042a.456.456 0 0 0 -.323-.136z"/><path d="m66.87 62.333h-4.2a.5.5 0 0 1 0-1h4.2a6.186 6.186 0 0 0 5.269-2.933.5.5 0 0 1 .848.53 7.179 7.179 0 0 1 -6.117 3.403z"/><path d="m60.147 62.333h-.447a.5.5 0 0 1 0-1h.448a.5.5 0 0 1 0 1z"/><path d="m-.415 14.538a.5.5 0 0 1 -.5-.5v-.594a.5.5 0 0 1 .5-.5.5.5 0 0 1 .5.5v.594a.5.5 0 0 1 -.5.5z"/><path d="m-.415 11.725a.5.5 0 0 1 -.5-.5v-1.345a7.223 7.223 0 0 1 7.215-7.214.5.5 0 0 1 0 1 6.222 6.222 0 0 0 -6.215 6.214v1.345a.5.5 0 0 1 -.5.5z"/></g><path d="m67.845 48.25v9.466a3.677 3.677 0 0 1 -.16 1.022 3.712 3.712 0 0 0 2.9-3.619v-6.869z" fill="#d5d6db"/><path d="m66.87 59.333h-60.57a4.219 4.219 0 0 1 -4.215-4.215v-7.218a.5.5 0 0 1 .5-.5h68a.5.5 0 0 1 .5.5v7.216a4.219 4.219 0 0 1 -4.215 4.217zm-63.785-10.933v6.716a3.219 3.219 0 0 0 3.215 3.217h60.57a3.219 3.219 0 0 0 3.215-3.215v-6.718z" fill="#323c6b"/><path d="m66.87 59.333h-60.57a4.219 4.219 0 0 1 -4.215-4.215v-45.238a4.219 4.219 0 0 1 4.215-4.214h60.57a4.219 4.219 0 0 1 4.215 4.214v45.239a4.219 4.219 0 0 1 -4.215 4.214zm-60.57-52.667a3.219 3.219 0 0 0 -3.215 3.214v45.239a3.219 3.219 0 0 0 3.215 3.214h60.57a3.219 3.219 0 0 0 3.215-3.215v-45.238a3.219 3.219 0 0 0 -3.215-3.214z" fill="#323c6b"/><path d="m18.579 27.442a5.65 5.65 0 1 1 5.65-5.65 5.656 5.656 0 0 1 -5.65 5.65zm0-10.3a4.65 4.65 0 1 0 4.65 4.65 4.655 4.655 0 0 0 -4.65-4.65z" fill="#323c6b"/><path d="m28 38.335h-18.836a.5.5 0 0 1 -.5-.5v-2.946a5.772 5.772 0 0 1 5.766-5.766h8.3a5.772 5.772 0 0 1 5.77 5.766v2.946a.5.5 0 0 1 -.5.5zm-18.331-1h17.831v-2.446a4.771 4.771 0 0 0 -4.766-4.766h-8.3a4.771 4.771 0 0 0 -4.766 4.766z" fill="#323c6b"/><path d="m43.833 44.968h-11.208a.6.6 0 0 1 0-1.2h11.208a.6.6 0 0 1 0 1.2z" fill="#fff"/><path d="m29.292 44.968h-1.542a.6.6 0 0 1 0-1.2h1.542a.6.6 0 0 1 0 1.2z" fill="#fff"/></g></svg>