<svg height="512" viewBox="0 0 64 64" width="512" xmlns="http://www.w3.org/2000/svg"><g id="detail"><path d="m61 9h-7v-6h1a6 6 0 0 1 6 6z" fill="#acabb1"/><path d="m54 3v58h-1c-3.31 0-8-2.69-8-6h-36v-48a4 4 0 0 1 4-4z" fill="#ffdaaa"/><path d="m54 3v58h-1a6.96 6.96 0 0 1 -1-.08v-57.92z" fill="#ffc477"/><path d="m53 61h-44a6.009 6.009 0 0 1 -6-6h42c0 3.31 4.69 6 8 6z" fill="#acabb1"/><path d="m19 7h26v26h-26z" fill="#ebe5dd"/><path d="m43 7v26h2v-26z" fill="#d9ccbc"/><path d="m27 25v4h2v-4z" fill="#d9ccbc"/><path d="m41 7h4v4h-4z" fill="#c0ab91"/><path d="m37 7v10l-5 2-5-2v-10z" fill="#ffb655"/><path d="m37 7v10l-5 2-1-.4 4-1.6v-10z" fill="#ffa733"/><path d="m23 25h6v4h-6z" fill="#00d7df"/><path d="m19 7h4v4h-4z" fill="#c0ab91"/><path d="m12 38h2v2h-2z"/><path d="m16 38h35v2h-35z"/><path d="m12 42h2v2h-2z"/><path d="m16 42h35v2h-35z"/><path d="m12 46h2v2h-2z"/><path d="m16 46h35v2h-35z"/><path d="m12 50h2v2h-2z"/><path d="m16 50h35v2h-35z"/><path d="m30 9h4v2h-4z"/><path d="m30 12h4v2h-4z"/><path d="m19 34h26a1 1 0 0 0 1-1v-26a1 1 0 0 0 -1-1h-26a1 1 0 0 0 -1 1v26a1 1 0 0 0 1 1zm1-2v-20h3a1 1 0 0 0 1-1v-3h2v9a1 1 0 0 0 .629.929l5 2a1 1 0 0 0 .742 0l5-2a1 1 0 0 0 .629-.929v-9h2v3a1 1 0 0 0 1 1h3v20zm8-24h8v8.323l-4 1.6-4-1.6zm16 2h-2v-2h2zm-22-2v2h-2v-2z"/><path d="m29 24h-6a1 1 0 0 0 -1 1v4a1 1 0 0 0 1 1h6a1 1 0 0 0 1-1v-4a1 1 0 0 0 -1-1zm-1 4h-4v-2h4z"/><path d="m36 24h6v2h-6z"/><path d="m36 28h6v2h-6z"/><path d="m55 2h-42a5.006 5.006 0 0 0 -5 5v47h-5a1 1 0 0 0 -1 1 7.008 7.008 0 0 0 7 7h45a1 1 0 0 0 1-1v-51h6a1 1 0 0 0 1-1 7.008 7.008 0 0 0 -7-7zm-46 58a5.008 5.008 0 0 1 -4.9-4h40.01a6.953 6.953 0 0 0 3 4zm44 0c-2.992 0-7-2.472-7-5a1 1 0 0 0 -1-1h-35v-47a3 3 0 0 1 3-3h40zm2-52v-4a5.008 5.008 0 0 1 4.9 4z"/></g></svg>