<svg height="496pt" viewBox="0 0 496 496" width="496pt" xmlns="http://www.w3.org/2000/svg"><path d="m8 104h480v384h-480zm0 0" fill="#b8cbd9"/><path d="m8 401.960938c43.679688 24.167968 94.160156 38.039062 148 38.039062 165.6875 0 300-130.734375 300-292 0-14.960938-1.167969-29.648438-3.390625-44h-444.609375zm0 0" fill="#e8eff4"/><path d="m8 8h480v96h-480zm0 0" fill="#78b75b"/><path d="m72 56c0 8.835938-7.164062 16-16 16s-16-7.164062-16-16 7.164062-16 16-16 16 7.164062 16 16zm0 0" fill="#fff"/><path d="m136 56c0 8.835938-7.164062 16-16 16s-16-7.164062-16-16 7.164062-16 16-16 16 7.164062 16 16zm0 0" fill="#fff"/><path d="m200 56c0 8.835938-7.164062 16-16 16s-16-7.164062-16-16 7.164062-16 16-16 16 7.164062 16 16zm0 0" fill="#fff"/><path d="m216 216-19.710938 19.710938c-18.113281 18.113281-42.679687 28.289062-68.289062 28.289062s-50.175781-10.175781-68.289062-28.289062l-19.710938-19.710938 19.710938-19.710938c18.113281-18.113281 42.679687-28.289062 68.289062-28.289062s50.175781 10.175781 68.289062 28.289062zm0 0" fill="#857970"/><path d="m152 216c0 13.253906-10.746094 24-24 24s-24-10.746094-24-24 10.746094-24 24-24 24 10.746094 24 24zm0 0" fill="#e8eff4"/><g fill="#78b75b"><path d="m424 264h32v192h-32zm0 0"/><path d="m360 328h32v128h-32zm0 0"/><path d="m296 360h32v96h-32zm0 0"/><path d="m232 392h32v64h-32zm0 0"/></g><path d="m488 496h-480c-4.425781 0-8-3.574219-8-8v-480c0-4.425781 3.574219-8 8-8h480c4.425781 0 8 3.574219 8 8v480c0 4.425781-3.574219 8-8 8zm-472-16h464v-464h-464zm0 0"/><path d="m56 80c-13.230469 0-24-10.769531-24-24s10.769531-24 24-24 24 10.769531 24 24-10.769531 24-24 24zm0-32c-4.414062 0-8 3.585938-8 8s3.585938 8 8 8 8-3.585938 8-8-3.585938-8-8-8zm0 0"/><path d="m120 80c-13.230469 0-24-10.769531-24-24s10.769531-24 24-24 24 10.769531 24 24-10.769531 24-24 24zm0-32c-4.414062 0-8 3.585938-8 8s3.585938 8 8 8 8-3.585938 8-8-3.585938-8-8-8zm0 0"/><path d="m184 80c-13.230469 0-24-10.769531-24-24s10.769531-24 24-24 24 10.769531 24 24-10.769531 24-24 24zm0-32c-4.414062 0-8 3.585938-8 8s3.585938 8 8 8 8-3.585938 8-8-3.585938-8-8-8zm0 0"/><path d="m8 96h480v16h-480zm0 0"/><path d="m128 272c-27.929688 0-54.183594-10.871094-73.9375-30.625l-19.71875-19.71875c-3.128906-3.128906-3.128906-8.183594 0-11.3125l19.71875-19.71875c19.753906-19.753906 46.007812-30.625 73.9375-30.625s54.183594 10.871094 73.9375 30.625l19.71875 19.71875c3.128906 3.128906 3.128906 8.183594 0 11.3125l-19.71875 19.71875c-19.753906 19.753906-46.007812 30.625-73.9375 30.625zm-76.6875-56 14.0625 14.0625c16.730469 16.730469 38.96875 25.9375 62.625 25.9375s45.894531-9.207031 62.625-25.9375l14.0625-14.0625-14.0625-14.0625c-16.730469-16.730469-38.96875-25.9375-62.625-25.9375s-45.894531 9.207031-62.625 25.9375zm0 0"/><path d="m128 248c-17.648438 0-32-14.351562-32-32s14.351562-32 32-32 32 14.351562 32 32-14.351562 32-32 32zm0-48c-8.824219 0-16 7.175781-16 16s7.175781 16 16 16 16-7.175781 16-16-7.175781-16-16-16zm0 0"/><path d="m80 304h-40c-4.425781 0-8-3.574219-8-8v-40h16v32h32zm0 0"/><path d="m216 304h-40v-16h32v-32h16v40c0 4.425781-3.574219 8-8 8zm0 0"/><path d="m224 176h-16v-32h-32v-16h40c4.425781 0 8 3.574219 8 8zm0 0"/><path d="m48 176h-16v-40c0-4.425781 3.574219-8 8-8h40v16h-32zm0 0"/><path d="m456 464h-32c-4.425781 0-8-3.574219-8-8v-192c0-4.425781 3.574219-8 8-8h32c4.425781 0 8 3.574219 8 8v192c0 4.425781-3.574219 8-8 8zm-24-16h16v-176h-16zm0 0"/><path d="m392 464h-32c-4.425781 0-8-3.574219-8-8v-128c0-4.425781 3.574219-8 8-8h32c4.425781 0 8 3.574219 8 8v128c0 4.425781-3.574219 8-8 8zm-24-16h16v-112h-16zm0 0"/><path d="m328 464h-32c-4.425781 0-8-3.574219-8-8v-96c0-4.425781 3.574219-8 8-8h32c4.425781 0 8 3.574219 8 8v96c0 4.425781-3.574219 8-8 8zm-24-16h16v-80h-16zm0 0"/><path d="m264 464h-32c-4.425781 0-8-3.574219-8-8v-64c0-4.425781 3.574219-8 8-8h32c4.425781 0 8 3.574219 8 8v64c0 4.425781-3.574219 8-8 8zm-24-16h16v-48h-16zm0 0"/><path d="m205.65625 365.65625-11.3125-11.3125 64-64c1.496094-1.503906 3.527344-2.34375 5.65625-2.34375h28.6875l29.65625-29.65625c1.496094-1.503906 3.527344-2.34375 5.65625-2.34375h27.054688l29.792968-59.574219c1.351563-2.714843 4.121094-4.425781 7.152344-4.425781h64v16h-59.054688l-29.792968 59.574219c-1.351563 2.714843-4.121094 4.425781-7.152344 4.425781h-28.6875l-29.65625 29.65625c-1.496094 1.503906-3.527344 2.34375-5.65625 2.34375h-28.6875zm0 0"/><path d="m429.65625 237.65625-11.3125-11.3125 26.34375-26.34375-26.34375-26.34375 11.3125-11.3125 32 32c3.128906 3.128906 3.128906 8.183594 0 11.3125zm0 0"/></svg>