<svg id="Capa_1" enable-background="new 0 0 512 512" height="512" viewBox="0 0 512 512" width="512" xmlns="http://www.w3.org/2000/svg"><g><g><g><path d="m478.268 107.051c-13.152 0-24.27 9.739-26.003 22.775l-11.938 89.804c-.931 7.002-4.179 13.491-9.227 18.432l-35.537 34.786c10.101-9.887 10.147-26.131.103-36.075-9.964-9.865-26.049-9.75-35.871.256l-69.395 70.695c-10.588 10.787-16.52 25.298-16.52 40.413v153.863c0 5.523 4.477 10 10 10h56.02 24.604 10.131c5.523 0 10-4.477 10-10v-70.005c0-7.768 2.758-15.283 7.783-21.207l101.481-119.642c6.844-8.069 10.601-18.306 10.601-28.887v-128.975c0-14.488-11.745-26.233-26.232-26.233z" fill="#f1ccbd"/><g fill="#eaad9c"><path d="m478.268 107.051c-5.546 0-10.727 1.737-14.999 4.718 6.787 4.742 11.231 12.607 11.231 21.515v128.976c0 10.581-3.757 20.818-10.601 28.887l-101.482 119.641c-5.025 5.924-7.783 13.439-7.783 21.207v70.005c0 5.523-4.477 10-10 10h30c5.523 0 10-4.477 10-10v-70.005c0-7.768 2.758-15.283 7.783-21.207l101.481-119.642c6.844-8.069 10.601-18.306 10.601-28.887v-128.975c.001-14.488-11.744-26.233-26.231-26.233z"/><path d="m395.664 236.773c-8.986-8.896-22.949-9.673-32.809-2.4.979.722 1.919 1.52 2.808 2.4 10.044 9.944 9.998 26.188-.103 36.075l-15.259 14.936c-6.719 6.577-2.062 17.991 7.34 17.991 2.744 0 5.379-1.075 7.34-2.994l30.579-29.932c10.102-9.888 10.148-26.131.104-36.076z"/></g></g><g><g><path d="m256 22.5c-16.512 0-32.596-13.4-48.062-10.367-51.434 10.085-96.021 36.014-126.721 71.618-3.477 4.033-3.477 10.706 0 14.739 29.418 34.118 71.589 59.352 120.317 70.273 17.412 3.903 35.662-9.022 54.465-9.022s37.053 12.925 54.465 9.022c48.728-10.921 90.899-36.155 120.317-70.273 3.477-4.033 3.477-10.706 0-14.739-30.699-35.604-75.286-61.533-126.72-71.618-15.465-3.033-31.549 10.367-48.061 10.367z" fill="#f7f6f7"/><path d="m430.782 83.751c-30.699-35.604-75.286-61.533-126.721-71.618-15.465-3.033-31.549 10.367-48.061 10.367-5.043 0-10.042.166-15 .459 65.261 3.867 122.672 17.751 159.782 60.792 3.477 4.033 3.477 10.706 0 14.739-37.111 43.04-94.521 56.925-159.782 60.792 4.958.294 9.957.459 15 .459 18.804 0 37.053 12.925 54.465 9.022 48.728-10.921 90.899-36.155 120.317-70.273 3.477-4.033 3.477-10.706 0-14.739z" fill="#e2dfe3"/><path d="m207.939 12.135c-21.542 17.96-35.622 47.661-35.622 81.267 0 30.149 11.333 57.155 29.218 75.36 17.412 3.903 35.661 5.978 54.465 5.978s37.053-2.076 54.465-5.978c17.885-18.205 29.218-45.212 29.218-75.36 0-33.606-14.081-63.307-35.622-81.267-15.465-3.032-31.549-4.635-48.061-4.635s-32.596 1.603-48.061 4.635z" fill="#655e67"/><path d="m304.061 12.135c-15.465-3.032-31.549-4.635-48.061-4.635-5.044 0-10.042.167-15 .462.113.007.225.013.338.02 27.572 1.671 51.671 19.56 61.285 45.455 4.54 12.227 7.06 25.746 7.06 39.965 0 9.567-1.141 18.817-3.271 27.57-7.233 29.729-33.204 51.197-63.734 53.209-.559.037-1.118.072-1.679.105 4.958.294 9.957.455 15 .455 18.804 0 37.053-2.076 54.465-5.978 17.885-18.206 29.218-45.212 29.218-75.36.002-33.607-14.079-63.308-35.621-81.268z" fill="#544f56"/><circle cx="256" cy="93.402" fill="#fff" r="33.65"/><path d="m256 59.751c-5.391 0-10.483 1.275-15 3.529 11.054 5.516 18.651 16.928 18.651 30.122s-7.597 24.606-18.651 30.122c4.517 2.254 9.609 3.529 15 3.529 18.585 0 33.651-15.066 33.651-33.65s-15.066-33.652-33.651-33.652z" fill="#e2dfe3"/></g></g><g><path d="m221.6 307.724-69.394-70.694c-9.822-10.006-25.907-10.121-35.871-.256-10.044 9.944-9.998 26.188.103 36.075l-35.537-34.786c-5.048-4.941-8.296-11.43-9.227-18.432l-11.938-89.804c-1.733-13.037-12.852-22.775-26.003-22.775-14.488 0-26.232 11.745-26.232 26.232v128.976c0 10.581 3.757 20.818 10.601 28.887l101.481 119.642c5.025 5.924 7.783 13.439 7.783 21.207v70.004c0 5.523 4.477 10 10 10h10.131 24.603 56.021c5.523 0 10-4.477 10-10v-153.864c0-15.115-5.932-29.626-16.521-40.412z" fill="#f1ccbd"/><g fill="#eaad9c"><path d="m33.732 107.051c5.546 0 10.727 1.737 14.999 4.718-6.787 4.742-11.231 12.607-11.231 21.515v128.976c0 10.581 3.757 20.818 10.601 28.887l101.481 119.642c5.025 5.924 7.783 13.439 7.783 21.207v70.004c0 5.523 4.477 10 10 10h-30c-5.523 0-10-4.477-10-10v-70.005c0-7.768-2.758-15.283-7.783-21.207l-101.481-119.642c-6.844-8.069-10.601-18.306-10.601-28.887v-128.975c0-14.488 11.745-26.233 26.232-26.233z"/><path d="m116.336 236.773c8.986-8.896 22.949-9.673 32.809-2.4-.979.722-1.919 1.52-2.808 2.4-10.044 9.944-9.998 26.188.103 36.075l15.259 14.936c6.719 6.577 2.062 17.991-7.34 17.991-2.744 0-5.379-1.075-7.34-2.994l-30.579-29.932c-10.102-9.888-10.148-26.131-.104-36.076z"/></g></g></g><path d="m256 52.251c-22.69 0-41.15 18.46-41.15 41.151 0 22.69 18.46 41.15 41.15 41.15s41.15-18.46 41.15-41.15c0-22.691-18.46-41.151-41.15-41.151zm0 67.302c-14.419 0-26.15-11.731-26.15-26.15 0-14.42 11.731-26.151 26.15-26.151s26.15 11.731 26.15 26.151c0 14.418-11.731 26.15-26.15 26.15zm-98.441 112.222c-6.158-6.273-14.39-9.763-23.181-9.825-.08 0-.161-.001-.241-.001-8.701 0-16.888 3.366-23.078 9.494-4.691 4.645-7.802 10.444-9.074 16.763l-15.837-15.502c-3.832-3.751-6.332-8.745-7.039-14.062l-11.939-89.803c-2.22-16.696-16.595-29.287-33.438-29.287-18.6 0-33.732 15.132-33.732 33.731v128.977c0 12.343 4.397 24.324 12.381 33.738l101.482 119.642c3.871 4.562 6.002 10.371 6.002 16.355v72.505c0 4.143 3.358 7.5 7.5 7.5s7.5-3.357 7.5-7.5v-72.505c0-9.533-3.396-18.788-9.562-26.059l-101.482-119.641c-5.688-6.706-8.821-15.242-8.821-24.035v-128.977c0-10.328 8.403-18.731 18.732-18.731 9.353 0 17.336 6.992 18.569 16.264l11.938 89.804c1.146 8.622 5.201 16.721 11.416 22.804l51.08 50 18.095 17.712c2.761 2.704 7.108 2.858 10.042.408 3.349-2.797 3.65-8.006.451-11.126l-33.639-32.928c-3.438-3.364-5.338-7.866-5.352-12.677s1.861-9.324 5.28-12.708c3.392-3.358 7.906-5.224 12.659-5.153 4.772.034 9.241 1.928 12.583 5.333l69.394 70.694c9.268 9.441 14.372 21.928 14.372 35.159v156.362c0 4.143 3.358 7.5 7.5 7.5s7.5-3.357 7.5-7.5v-156.363c0-17.186-6.63-33.403-18.667-45.667zm278.904-128.387c5.93-6.879 5.93-17.655 0-24.534-20.69-23.996-47.733-43.859-78.206-57.444-31.868-14.207-66.272-21.41-102.257-21.41-45.612 0-71.07 6.913-105.461 22.866-3.758 1.743-5.392 6.201-3.649 9.959s6.2 5.39 9.959 3.65c9.264-4.295 18.904-7.964 28.808-10.999-13.297 18.924-20.84 42.907-20.84 67.924 0 22.535 6.07 44.24 17.068 62.212-7.475-2.448-14.825-5.27-22.033-8.482-28.47-12.691-53.696-31.204-72.953-53.538-1.056-1.225-1.056-3.72 0-4.944 11.532-13.374 25.096-25.329 40.316-35.533 3.44-2.307 4.36-6.966 2.053-10.406-2.307-3.439-6.966-4.358-10.406-2.053-16.338 10.953-30.914 23.805-43.325 38.197-5.93 6.879-5.93 17.655 0 24.534 20.69 23.995 47.733 43.859 78.207 57.443 31.866 14.207 66.271 21.41 102.256 21.41s70.39-7.203 102.256-21.409c30.473-13.584 57.516-33.448 78.207-57.443zm-180.463 63.852c-17.303 0-34.206-1.777-50.596-5.284-16.285-17.449-25.587-42.299-25.587-68.555 0-29.362 11.724-56.943 31.446-74.232 14.655-2.756 29.669-4.169 44.737-4.169 15.218 0 30.126 1.378 44.649 4.093 19.776 17.284 31.535 44.903 31.535 74.309 0 26.255-9.302 51.105-25.587 68.555-16.391 3.506-33.294 5.283-50.597 5.283zm74.116-11.627c10.997-17.972 17.068-39.677 17.068-62.212 0-25.039-7.556-49.042-20.875-67.974 8.789 2.709 17.414 5.925 25.84 9.682 28.469 12.691 53.696 31.205 72.953 53.539 1.056 1.225 1.056 3.72 0 4.944-19.257 22.334-44.484 40.847-72.954 53.538-7.207 3.214-14.557 6.036-22.032 8.483zm-56.237 270.013c-4.142 0-7.5 3.357-7.5 7.5v71.374c0 4.143 3.358 7.5 7.5 7.5s7.5-3.357 7.5-7.5v-71.374c0-4.143-3.358-7.5-7.5-7.5zm204.389-326.074c-16.843 0-31.218 12.591-33.438 29.287l-11.938 89.804c-.707 5.316-3.207 10.311-7.039 14.062l-15.838 15.502c-1.273-6.319-4.383-12.118-9.075-16.763-6.277-6.214-14.512-9.556-23.319-9.493-8.791.062-17.023 3.552-23.181 9.825l-69.393 70.694c-12.038 12.264-18.668 28.481-18.668 45.667v49.989c0 4.143 3.358 7.5 7.5 7.5s7.5-3.357 7.5-7.5v-49.989c0-13.231 5.104-25.718 14.373-35.159l69.393-70.694c3.371-3.433 7.903-5.334 12.714-5.334 4.723 0 9.168 1.827 12.528 5.154 3.419 3.384 5.294 7.897 5.28 12.708s-1.915 9.312-5.352 12.678l-33.638 32.927c-2.96 2.897-3.011 7.646-.114 10.605 2.898 2.96 7.646 3.012 10.606.113l69.176-67.712c6.214-6.083 10.269-14.182 11.415-22.804l11.938-89.804c1.233-9.271 9.216-16.264 18.569-16.264 10.329 0 18.732 8.403 18.732 18.731v128.978c0 8.793-3.133 17.329-8.821 24.035l-101.481 119.642c-6.167 7.271-9.562 16.525-9.562 26.059v72.504c0 4.143 3.358 7.5 7.5 7.5s7.5-3.357 7.5-7.5v-72.505c0-5.984 2.131-11.793 6.002-16.355l101.482-119.642c7.984-9.414 12.381-21.395 12.381-33.738v-128.977c0-18.599-15.132-33.731-33.732-33.731z"/></g></svg>